<svg id="Camada_1" data-name="Camada 1" xmlns="http://www.w3.org/2000/svg" viewBox="0 0 228.32 237.94"><title>logo-v1.0</title><path d="M205,57.39H198.9a14,14,0,0,0-4.54-6.28,6.41,6.41,0,0,1-2.08-3.71c-1.6-7.38-6.38-12.66-14.23-15.62a1.87,1.87,0,0,1-.45-.22c-1.89-5.53-6.16-8.7-12.69-9.38-.62-.07-.68-.18-.83-.41a9.83,9.83,0,0,0-2.2-2.4,23.79,23.79,0,0,0-16.69-5.13,3.63,3.63,0,0,1-2.46-.63A16.48,16.48,0,0,0,127,12a.63.63,0,0,1-.58,0,24.19,24.19,0,0,0-7.36-1.56c-9.69-.55-18.89,2.23-27.36,8.26-.13.09-.13.09-.24.08a23.69,23.69,0,0,0-13,2.19A40.66,40.66,0,0,0,62.27,35.12a1.35,1.35,0,0,1-.52.49,29.82,29.82,0,0,0-5.48,3.45c-4.83,3.92-7,8.46-6.67,13.88a.33.33,0,0,1,0,.12,1.12,1.12,0,0,1-.3.52c-1.32,1.17-2.46,1.81-3.43,3.81H37.76A9.54,9.54,0,0,0,28,67.21V213.78c0,5.61,4.15,10.61,9.76,10.61H205c5.61,0,10-5,10-10.61V67.21A9.71,9.71,0,0,0,205,57.39Z" transform="translate(-8.72 -10.38)" style="fill:#162a42"/><g id="_Grupo_" data-name="&lt;Grupo&gt;"><path d="M179.35,81.19a31.88,31.88,0,0,0-1.47-6.56,9.6,9.6,0,0,1,2.43,4.26,4.85,4.85,0,0,0,4.12,3.65c2.63.5,5.31.94,7.54,2.66a3.53,3.53,0,0,0,2.28.91,1.92,1.92,0,0,1-2.13.9,11,11,0,0,0-2.38-1.35c-2.08-1.32-4.49-1.72-6.85-2.17a4.88,4.88,0,0,1-3.54-2.29Z" transform="translate(-8.72 -10.38)" style="fill:#f80"/><path d="M192.61,88.07a3.42,3.42,0,0,1-.7-.08l-.21,0-.17-.13a10.4,10.4,0,0,0-2.17-1.22l-.16-.08a16.83,16.83,0,0,0-6.1-2l-.39-.08a5.86,5.86,0,0,1-4.2-2.73L178,81l.29-.26a32.83,32.83,0,0,0-1.39-5.85l-1.14-3.66,2.78,2.63a10.39,10.39,0,0,1,2.7,4.69,3.86,3.86,0,0,0,3.36,3l.4.07c2.59.5,5.26,1,7.56,2.78a2.9,2.9,0,0,0,1.55.7l2-.11-1,1.66A2.92,2.92,0,0,1,192.61,88.07Z" transform="translate(-8.72 -10.38)" style="fill:#162a42"/><path d="M190.87,71.75c.74.13,1.39.2,2,.28h0a3.58,3.58,0,0,1-.88.72A9.32,9.32,0,0,0,190.87,71.75Z" transform="translate(-8.72 -10.38)" style="fill:#f80"/><path d="M191.76,74l-.53-.57a8.33,8.33,0,0,0-1-.91l-3.12-2.46,3.92.69c.54.1,1,.16,1.47.22l2.46.34-1.43,1.42a4.18,4.18,0,0,1-1.11.89Z" transform="translate(-8.72 -10.38)" style="fill:#162a42"/><path d="M192.12,87a4.43,4.43,0,0,1-1.69-.86,6.63,6.63,0,0,0-.69-.49A11,11,0,0,1,192.12,87Z" transform="translate(-8.72 -10.38)" style="fill:#f80"/><path d="M196.37,88.94l-4.45-1a5.37,5.37,0,0,1-2.1-1,6.14,6.14,0,0,0-.61-.43l.92-1.77a12.09,12.09,0,0,1,2.59,1.47Z" transform="translate(-8.72 -10.38)" style="fill:#162a42"/><path d="M185.61,71.18c2.16,1.06,4.46,2.63,6.35,1.58.12.12.23.25.34.38C189.82,74.19,187.51,72.87,185.61,71.18Z" transform="translate(-8.72 -10.38)" style="fill:#f80"/><path d="M190.49,74.51c-1.77,0-3.59-.84-5.55-2.59L179.45,67l6.6,3.24,1,.52c1.63.85,3.33,1.68,4.41,1.08l.67-.37.53.55c.13.14.26.28.38.43l.89,1-1.26.53A5.62,5.62,0,0,1,190.49,74.51Z" transform="translate(-8.72 -10.38)" style="fill:#162a42"/><path d="M187.35,56.25a4.3,4.3,0,0,1-1.65,1.25c.11-.22.22-.44.32-.67C186.37,56,186.86,56,187.35,56.25Z" transform="translate(-8.72 -10.38)" style="fill:#f80"/><path d="M183.36,59.72l1.46-2.7c.1-.19.19-.39.28-.59a1.89,1.89,0,0,1,1.75-1.31,2.13,2.13,0,0,1,.91.22l1.1.5-.69,1a5.1,5.1,0,0,1-2,1.58Z" transform="translate(-8.72 -10.38)" style="fill:#162a42"/><path d="M190.87,71.75A17.8,17.8,0,0,1,185.7,70,7.8,7.8,0,0,1,190.87,71.75Z" transform="translate(-8.72 -10.38)" style="fill:#f80"/><path d="M194.57,73.41l-3.87-.68a18.48,18.48,0,0,1-5.45-1.84l-3.55-1.82,4.17-.07a8.84,8.84,0,0,1,5.63,2Z" transform="translate(-8.72 -10.38)" style="fill:#162a42"/><path d="M190.87,71.75a9.32,9.32,0,0,1,1.09,1c-1.89,1-4.19-.52-6.35-1.58-.39-.35-.77-.72-1.13-1.08a7.43,7.43,0,0,1,1.22-.1A17.8,17.8,0,0,0,190.87,71.75Z" transform="translate(-8.72 -10.38)" style="fill:#f80"/><path d="M190.58,74.1a10.13,10.13,0,0,1-4.44-1.53l-1-.5-.23-.15c-.4-.36-.8-.74-1.17-1.12l-1.38-1.4,1.94-.29a8.71,8.71,0,0,1,1.36-.11h.25l.22.12a16.47,16.47,0,0,0,4.89,1.65l.25,0,.19.15a10.39,10.39,0,0,1,1.2,1.11l.88.94-1.12.62A3.87,3.87,0,0,1,190.58,74.1Z" transform="translate(-8.72 -10.38)" style="fill:#162a42"/><path d="M183.85,69.44c.28.21.57-.15.81,0s.71.39,1,.57a7.43,7.43,0,0,0-1.22.1C184.27,69.88,184.06,69.65,183.85,69.44Z" transform="translate(-8.72 -10.38)" style="fill:#f80"/><path d="M184.12,71.16l-.36-.37-.64-.67,1.35-1.47a.71.71,0,0,0-.42-.14h-.12a1.56,1.56,0,0,1,1.23,0l1,.54,3.56,1.82-4,.07a6.5,6.5,0,0,0-1.09.09Z" transform="translate(-8.72 -10.38)" style="fill:#162a42"/><path d="M183.21,70.35a12.36,12.36,0,0,1,1.27-.25c.36.36.74.73,1.13,1.08A7.72,7.72,0,0,0,183.21,70.35Z" transform="translate(-8.72 -10.38)" style="fill:#f80"/><path d="M191.74,75.32l-6.57-3.25a6.71,6.71,0,0,0-2.07-.72l-5.47-.6L183,69.38a13.37,13.37,0,0,1,1.38-.27l.5-.07.35.35c.35.35.71.71,1.09,1Z" transform="translate(-8.72 -10.38)" style="fill:#162a42"/><path d="M181.86,115.35l.19.2-.3,0C181.79,115.49,181.82,115.42,181.86,115.35Z" transform="translate(-8.72 -10.38)" style="fill:#f80"/><polygon points="171.31 106.37 172.93 103.24 175.46 106.02 173.13 106.18 171.31 106.37" style="fill:#162a42"/><path d="M180.92,100.59c-1.31.4-2,.09-2.39-1.22a7.65,7.65,0,0,1,0-4.19c.76-3,1.63-5.92,2.55-8.85a2.37,2.37,0,0,1,2.52-1.83,16.49,16.49,0,0,1,6.16,1.16,6.63,6.63,0,0,1,.69.49,4.43,4.43,0,0,0,1.69.86c2.69,2,4.28,5.14,4.5,9.39a18.82,18.82,0,0,1-1.47,8.76,12,12,0,0,1-8,7.08c-2,.58-4,1.3-5.33,3.11,0,.07-.07.14-.11.22l.3,0a15,15,0,0,1,6.5-2.58,1.7,1.7,0,0,1,2,1,4.2,4.2,0,0,1,0,3.84c-1.53,3.39-3.7,6.42-5.54,9.63-3,5.19-6.5,10-9.75,15q-4.68-.21-9.37-.25v-.42a11.49,11.49,0,0,0,6-3.63c3.16-3.58,3.66-7.91,3.35-12.4-.1-1.57-.35-3.14-.57-4.7a9.05,9.05,0,0,1,1-4.57,94.37,94.37,0,0,0,4-10.6c.77-3,3.24-4.43,6-5.4,1.09-.39,2.23-.64,3.33-1a9.18,9.18,0,0,0-4.51.13C183.23,99.81,182.08,100.23,180.92,100.59Z" transform="translate(-8.72 -10.38)" style="fill:#f80"/><path d="M175.74,143.46l-.57,0c-3-.13-6.14-.22-9.33-.25h-1l0-2.2.75-.18a10.57,10.57,0,0,0,5.49-3.32c2.51-2.84,3.46-6.44,3.11-11.67-.09-1.31-.28-2.64-.47-3.94l-.1-.69a9,9,0,0,1,.92-4.7l.14-.37c.37-.94.75-1.86,1.14-2.79a60.51,60.51,0,0,0,2.79-7.71,7.53,7.53,0,0,1,2.84-4.15l-.27.08c-1.93.6-3.08-.06-3.64-1.87a8.61,8.61,0,0,1,0-4.73c.7-2.74,1.54-5.65,2.57-8.91a3.36,3.36,0,0,1,3.41-2.53,17.5,17.5,0,0,1,6.61,1.24l.14.08a7.78,7.78,0,0,1,.78.54,3.44,3.44,0,0,0,1.28.67l.21,0,.18.13c3,2.2,4.67,5.71,4.89,10.14a19.63,19.63,0,0,1-1.54,9.22,13.3,13.3,0,0,1-6,6.59,2.85,2.85,0,0,1,1.34,1.34,5.21,5.21,0,0,1,0,4.71,56.41,56.41,0,0,1-3.65,6.51c-.65,1.06-1.31,2.12-1.93,3.2-2,3.53-4.33,6.93-6.55,10.22-1.09,1.61-2.18,3.22-3.23,4.84Zm-6-2.2c1.69,0,3.36.09,5,.16,1-1.48,1.95-2.94,2.94-4.4,2.21-3.26,4.49-6.63,6.47-10.1.63-1.1,1.3-2.18,2-3.26a54.35,54.35,0,0,0,3.53-6.28,3.21,3.21,0,0,0,0-3c-.32-.62-.6-.51-.91-.46a14.07,14.07,0,0,0-6.08,2.4l-.24.17-.56,0-1.82.19,1-2c1.5-2.08,3.72-2.86,5.86-3.48a11,11,0,0,0,7.33-6.52,17.75,17.75,0,0,0,1.38-8.31c-.2-3.79-1.52-6.65-3.94-8.52a5.64,5.64,0,0,1-1.86-1q-.27-.21-.54-.39a15.6,15.6,0,0,0-5.72-1h0A1.38,1.38,0,0,0,182,86.63c-1,3.23-1.85,6.1-2.54,8.8a6.6,6.6,0,0,0,0,3.64c.21.68.37.68.51.68a2.26,2.26,0,0,0,.63-.12l1-.31c.83-.27,1.7-.55,2.6-.75a10.94,10.94,0,0,1,5-.11l2.94.84-2.87,1.06c-.62.23-1.24.41-1.84.58s-1,.3-1.51.47c-3.14,1.12-4.79,2.57-5.36,4.71a63.6,63.6,0,0,1-2.87,8c-.38.92-.76,1.84-1.13,2.76l-.14.38a7.36,7.36,0,0,0-.8,3.68l.1.69c.19,1.33.39,2.7.48,4.08.27,3.91.1,8.94-3.6,13.13A12.81,12.81,0,0,1,169.7,141.26Z" transform="translate(-8.72 -10.38)" style="fill:#162a42"/><path d="M177.82,74.52l0,0,0,0Z" transform="translate(-8.72 -10.38)" style="fill:#f80"/><polygon points="168.55 66.15 168.08 64.21 168.12 63.95 168.47 62.09 169.96 63.61 170.41 64.29 168.55 66.15" style="fill:#162a42"/><path d="M177.71,74.39c.14,0,.12,0,.11.12Z" transform="translate(-8.72 -10.38)" style="fill:#f80"/><polygon points="169.76 66.3 168.36 64.81 169.03 64.2 169.02 64.19 168.31 64.75 167.08 63.43 169.04 63.01 169.5 63.01 170.16 63.73 170.09 64.28 169.76 66.3" style="fill:#162a42"/><path d="M170.81,101.59a13.77,13.77,0,0,1,1.45-.89c-.52.35-1.06.68-1.6,1Z" transform="translate(-8.72 -10.38)" style="fill:#f80"/><path d="M171.16,102.56l-1-1.72.33-.21a9.78,9.78,0,0,1,1.37-.83l1,1.73C172.27,101.89,171.72,102.24,171.16,102.56Z" transform="translate(-8.72 -10.38)" style="fill:#162a42"/><path d="M161.16,31.33c.12-.89.57-1.26,1.66-1.45a3.19,3.19,0,0,0-.15,1.21,25,25,0,0,1,0,2.74,32.3,32.3,0,0,0-.26,6.21,8.19,8.19,0,0,0,1.9,5.05c2.35,2.47,5.28,2.91,8.49,2.11,1.16-.29,2.28-.73,3.57-1.16a7.9,7.9,0,0,1-2.46,1.81,6.88,6.88,0,0,0,.92-.86c-1.29.43-2.41.87-3.57,1.16-3.21.8-6.14.36-8.49-2.12a8.2,8.2,0,0,1-1.9-5,32.3,32.3,0,0,1,.26-6.21,21.15,21.15,0,0,0,0-2.39A9.42,9.42,0,0,0,161.16,31.33Z" transform="translate(-8.72 -10.38)" style="fill:#f80"/><path d="M166,52.73l4.33-3.37a8.85,8.85,0,0,1-8.3-2.64,9.14,9.14,0,0,1-2.16-5.62A24.41,24.41,0,0,1,160,36c0-.44.09-.89.13-1.33,0-.71,0-1.46,0-2.28v-.11a7.57,7.57,0,0,0,0-1V31.2a2.6,2.6,0,0,1,2.48-2.31l1.75-.31-.65,1.66a2.45,2.45,0,0,0-.08.83v.31a23.82,23.82,0,0,1,0,2.53c0,.46-.08.91-.13,1.37a23.62,23.62,0,0,0-.14,4.66A7.41,7.41,0,0,0,165,44.4c1.93,2,4.37,2.62,7.52,1.83.77-.19,1.53-.46,2.34-.74l1.17-.4,3.56-1.17-2.51,2.79a8.75,8.75,0,0,1-2.77,2Z" transform="translate(-8.72 -10.38)" style="fill:#162a42"/><path d="M167.79,62a10.11,10.11,0,0,1,3.37,5.9,12.91,12.91,0,0,0-4.36-6.7A10.5,10.5,0,0,1,167.79,62Z" transform="translate(-8.72 -10.38)" style="fill:#f80"/><path d="M170.2,68.15a11.93,11.93,0,0,0-4-6.19l1.21-1.59c.36.27.72.55,1.07.86a11.21,11.21,0,0,1,3.69,6.47Z" transform="translate(-8.72 -10.38)" style="fill:#162a42"/><path d="M161.16,31.33a9.42,9.42,0,0,1,0,1.06c0-.11,0-.23,0-.35A4,4,0,0,1,161.16,31.33Z" transform="translate(-8.72 -10.38)" style="fill:#f80"/><path d="M162.14,32.47l-2-.08v-.32a5.57,5.57,0,0,1,0-.85l2,.08A11.52,11.52,0,0,1,162.14,32.47Z" transform="translate(-8.72 -10.38)" style="fill:#162a42"/><path d="M160.5,71.33s.08.07.08.09-.06.06-.09.08-.07-.06-.07-.09S160.47,71.36,160.5,71.33Z" transform="translate(-8.72 -10.38)" style="fill:#f80"/><polygon points="151.59 62.62 151 61.77 150.7 61.46 150.71 61.03 150.7 61.03 150.7 60.51 151.18 60.15 151.92 59.51 152.78 60.56 152.86 61.1 152.79 61.61 152.38 61.92 151.59 62.62" style="fill:#162a42"/><path d="M158.49,73.71a20,20,0,0,0,1.76-2c.21.38,0,.58-.08.8a14.67,14.67,0,0,1-6.35,6.59A14.46,14.46,0,0,0,158.49,73.71Z" transform="translate(-8.72 -10.38)" style="fill:#f80"/><path d="M154.3,80l-1.05-1.7a13.37,13.37,0,0,0,4.34-5l.08-.14.11-.12a19.53,19.53,0,0,0,1.68-1.93l.94-1.22.73,1.35a1.59,1.59,0,0,1,0,1.65A15.76,15.76,0,0,1,154.3,80Z" transform="translate(-8.72 -10.38)" style="fill:#162a42"/><path d="M164.1,84.77a19.14,19.14,0,0,0-3.61,3,11.82,11.82,0,0,0-2.77,7.53,5.4,5.4,0,0,1-.34-3.41,3.11,3.11,0,0,0,.08-.93,10.09,10.09,0,0,1,1.5-2.24,24.82,24.82,0,0,1,5.1-4.06Z" transform="translate(-8.72 -10.38)" style="fill:#f80"/><path d="M158.55,99.58l-1.74-3.81a6.38,6.38,0,0,1-.4-4,2,2,0,0,0,.05-.62l0-.28.12-.25a11.72,11.72,0,0,1,1.64-2.46,22.79,22.79,0,0,1,4.71-3.83l1.4-1L165.45,85l-.78.64a17.91,17.91,0,0,0-3.42,2.87,10.79,10.79,0,0,0-2.53,6.92Z" transform="translate(-8.72 -10.38)" style="fill:#162a42"/><path d="M157.18,53.28a14.09,14.09,0,0,0-1.09-2.68,7.82,7.82,0,0,0-1.86-2.36A6.78,6.78,0,0,1,157.18,53.28Z" transform="translate(-8.72 -10.38)" style="fill:#f80"/><path d="M156.22,53.57a12.77,12.77,0,0,0-1-2.5A7,7,0,0,0,153.59,49l1.16-1.62a7.67,7.67,0,0,1,3.42,5.74Z" transform="translate(-8.72 -10.38)" style="fill:#162a42"/><path d="M156.77,60.92a9.68,9.68,0,0,0-1,.8,22.54,22.54,0,0,1-2.33,1.91,4.67,4.67,0,0,1-1.36.81,22.7,22.7,0,0,0,2.15-1.77A10,10,0,0,1,156.77,60.92Z" transform="translate(-8.72 -10.38)" style="fill:#f80"/><path d="M146.92,66.92l4.62-3.29a21.25,21.25,0,0,0,2.05-1.69A11.11,11.11,0,0,1,156.33,60l1,1.7a9.72,9.72,0,0,0-.88.73,24.74,24.74,0,0,1-2.43,2l-.25.18a4.31,4.31,0,0,1-1.43.79Z" transform="translate(-8.72 -10.38)" style="fill:#162a42"/><path d="M162.23,122.35a21.32,21.32,0,0,0,6.27-2.23,20.61,20.61,0,0,1-7.81,3.18,22.43,22.43,0,0,1-4.88.43h0c-1.09-.29-2.21-.53-3.29-.89a5.49,5.49,0,0,1-2.8-1.53A22.94,22.94,0,0,0,162.23,122.35Z" transform="translate(-8.72 -10.38)" style="fill:#f80"/><path d="M156.28,124.74h-.5l-.33-.06-1-.25c-.75-.19-1.53-.38-2.3-.64l-.28-.09a6,6,0,0,1-2.95-1.72l-2.64-3,3.73,1.34a22.66,22.66,0,0,0,7.8,1.43h0a21.54,21.54,0,0,0,4.21-.42,20.39,20.39,0,0,0,6-2.13l1,1.7a21.73,21.73,0,0,1-8.18,3.34A24,24,0,0,1,156.28,124.74Z" transform="translate(-8.72 -10.38)" style="fill:#162a42"/><path d="M148.45,102.14a24.74,24.74,0,0,0,21.07-1.88c-.49.34-1,.65-1.54.95a24.68,24.68,0,0,1-14,3.34,25.93,25.93,0,0,1-6.73-2.51A1.52,1.52,0,0,1,148.45,102.14Z" transform="translate(-8.72 -10.38)" style="fill:#f80"/><path d="M155.58,105.61c-.56,0-1.12,0-1.69-.06l-.14,0a26.56,26.56,0,0,1-7-2.6l-1.9-1,2-.8a2.62,2.62,0,0,1,1.81,0l.11,0A23.85,23.85,0,0,0,169,99.39l1.05,1.7c-.51.35-1.06.69-1.61,1A26.26,26.26,0,0,1,155.58,105.61Z" transform="translate(-8.72 -10.38)" style="fill:#162a42"/><path d="M154.88,112.77a.71.71,0,0,0-.28-.12c.3-.19.59-.38.89-.59s.41-.57.93-.24a15.15,15.15,0,0,1-4.59,3.89A18,18,0,0,0,154.88,112.77Z" transform="translate(-8.72 -10.38)" style="fill:#f80"/><path d="M152.28,116.6l-1-1.7a14.53,14.53,0,0,0,1.74-1.52l-1.23-.2,2.32-1.38c.28-.18.57-.36.85-.56a1.58,1.58,0,0,1,1.15-.54,1.67,1.67,0,0,1,.88.27l1,.61-.74.88A15.76,15.76,0,0,1,152.28,116.6Z" transform="translate(-8.72 -10.38)" style="fill:#162a42"/><path d="M158.5,86.58l.09,0c-.16.18-.31.37-.46.56a1,1,0,0,1-1.17.37,26.9,26.9,0,0,0-6.41-.88,23.9,23.9,0,0,0-3.37.2,19.74,19.74,0,0,0-7,2.27,19.22,19.22,0,0,1,8.5-3.21A25.4,25.4,0,0,1,158.5,86.58Z" transform="translate(-8.72 -10.38)" style="fill:#f80"/><path d="M140.7,90l-1-1.7a20.42,20.42,0,0,1,8.93-3.37,26.13,26.13,0,0,1,10.16.69l1.65.42-1.07,1.26c-.14.15-.27.31-.4.48a1.86,1.86,0,0,1-2.21.73,26.21,26.21,0,0,0-6.17-.85h-.29a22.23,22.23,0,0,0-2.94.2A18.56,18.56,0,0,0,140.7,90Z" transform="translate(-8.72 -10.38)" style="fill:#162a42"/><path d="M135.13,95.57A16.7,16.7,0,0,1,141,90.28a16.17,16.17,0,0,0-7,14.51,11,11,0,0,0,7.44,9.86,14.5,14.5,0,0,0,12.27-1.45c-4.22,2.82-8.73,4.1-13.81,2.4a11.69,11.69,0,0,1-2.63-1.29l-.07,0a15,15,0,0,1-1.62-1.37,11.26,11.26,0,0,1-3.12-7.16A16.1,16.1,0,0,1,135.13,95.57Z" transform="translate(-8.72 -10.38)" style="fill:#f80"/><path d="M144.41,117.36a15.07,15.07,0,0,1-4.86-.82,11.76,11.76,0,0,1-2.87-1.4l-.12-.09a14.34,14.34,0,0,1-1.71-1.44,12.34,12.34,0,0,1-3.43-7.81A17.1,17.1,0,0,1,134.3,95a17.86,17.86,0,0,1,6.2-5.61l1,1.7A15.2,15.2,0,0,0,135,104.72a9.92,9.92,0,0,0,6.76,9,13.41,13.41,0,0,0,11.46-1.37l1,1.7A17.41,17.41,0,0,1,144.41,117.36Z" transform="translate(-8.72 -10.38)" style="fill:#162a42"/><path d="M172.39,76.1c-1.3,3.38-3.88,5.67-6.8,7.66l-1.49,1,0-.06c2.91-2,5.49-4.28,6.8-7.66a14.83,14.83,0,0,0,.3-9.17,10.11,10.11,0,0,0-3.37-5.9,10.5,10.5,0,0,0-1-.8.38.38,0,0,0-.11-.08,12.45,12.45,0,0,0-4-2.06,8.21,8.21,0,0,0-.84-.27,5.32,5.32,0,0,1-4.34-4.32c-.1-.39-.2-.78-.32-1.17a6.78,6.78,0,0,0-3-5,8.7,8.7,0,0,0-7.15-1.61,21.65,21.65,0,0,0-3.85,1l-.12-.3.43-.17a23.16,23.16,0,0,1,5.08-1.5c3.63-.56,7.1.37,9,4A16.5,16.5,0,0,1,159,53.5a5.32,5.32,0,0,0,4.34,4.32c.29.07.56.18.84.27C172.8,60.76,174.65,70.28,172.39,76.1Z" transform="translate(-8.72 -10.38)" style="fill:#f80"/><path d="M163.85,86.16l-1.19-1.71.83-.57c2.45-1.67,5.13-3.83,6.43-7.19a13.93,13.93,0,0,0,.28-8.54,9.26,9.26,0,0,0-3.07-5.42c-.3-.27-.61-.52-.92-.75l.48-.88-.56.82A11.87,11.87,0,0,0,162.39,60l-.33-.11a3.52,3.52,0,0,0-.43-.13,6.3,6.3,0,0,1-5.1-5.06c-.09-.37-.19-.75-.31-1.12l0-.15a5.86,5.86,0,0,0-2.48-4.32l-.12-.09a7.69,7.69,0,0,0-6.35-1.39,19.55,19.55,0,0,0-3.67,1l-.92.33-.84-2.17,1-.35.39-.16a23.63,23.63,0,0,1,5.31-1.55c4.54-.71,8.13.88,10.05,4.48A17.83,17.83,0,0,1,160,53.26a4.33,4.33,0,0,0,3.57,3.58c.24.06.45.13.67.2l.27.09a13.29,13.29,0,0,1,8.21,7.06,16,16,0,0,1,.6,12.28c-1.51,3.89-4.63,6.38-7.17,8.12l-.33.22-1.16.79Z" transform="translate(-8.72 -10.38)" style="fill:#162a42"/><path d="M142.58,32c-1,1.07-2,2.11-2.92,3.16l-.36-.31c.59-.63,1.18-1.26,1.75-1.91a8.07,8.07,0,0,0,2.14-7.13,3,3,0,0,1-.06-.57,2.09,2.09,0,0,1,1.26-1.88,8,8,0,0,1,.82-.42,2,2,0,0,0-.48,1.92A8.08,8.08,0,0,1,142.58,32Z" transform="translate(-8.72 -10.38)" style="fill:#f80"/><path d="M139.72,36.6l-1.84-1.66.69-.75c.61-.65,1.18-1.25,1.73-1.88A7,7,0,0,0,142.21,26a4.37,4.37,0,0,1-.08-.76,3.08,3.08,0,0,1,1.76-2.75,10.12,10.12,0,0,1,.93-.47l4.56-1.93-3.45,3.55c-.17.17-.34.41-.22,1a9,9,0,0,1-2.38,8c-.63.71-1.28,1.41-1.93,2.11-.34.35-.68.71-1,1.07Z" transform="translate(-8.72 -10.38)" style="fill:#162a42"/><path d="M139,126.68a9.52,9.52,0,0,0,3.55-4.69,6,6,0,0,1,3.41-4,6.64,6.64,0,0,0-1.88,3A10,10,0,0,1,139,126.68Z" transform="translate(-8.72 -10.38)" style="fill:#f80"/><path d="M139.46,127.56l-1.05-1.69a8.57,8.57,0,0,0,3.18-4.2,7,7,0,0,1,4-4.56l5.73-2.42-4.69,4.1a5.65,5.65,0,0,0-1.58,2.57A10.93,10.93,0,0,1,139.46,127.56Z" transform="translate(-8.72 -10.38)" style="fill:#162a42"/><path d="M138.43,48.86a4.15,4.15,0,0,1-3.14-1.19,12.54,12.54,0,0,0-.51-1.41A9,9,0,0,1,134,42.9a9.65,9.65,0,0,1,2.4-4.83c.93-1.1,1.92-2.15,2.9-3.19l.36.31c-.59.64-1.17,1.28-1.72,1.94-1.86,2.22-3.05,4.69-2.16,7.69A4,4,0,0,0,140,47.91a9.57,9.57,0,0,0,3.14-.56l.12.3q-.61.23-1.23.48A9.49,9.49,0,0,1,138.43,48.86Z" transform="translate(-8.72 -10.38)" style="fill:#f80"/><path d="M138.4,49.86a5.18,5.18,0,0,1-3.83-1.5l-.16-.17-.07-.23a13.66,13.66,0,0,0-.48-1.3,10,10,0,0,1-.86-3.74v-.15a10.47,10.47,0,0,1,2.63-5.34c.89-1.06,1.85-2.09,2.79-3.08l.82-.87,1.82,1.65-.68.74c-.57.62-1.14,1.25-1.68,1.9-2,2.42-2.64,4.51-2,6.77a3,3,0,0,0,3.2,2.37,8.62,8.62,0,0,0,2.84-.5l.91-.33.85,2.17-1,.35c-.4.14-.79.29-1.19.46a10.62,10.62,0,0,1-3.94.8Z" transform="translate(-8.72 -10.38)" style="fill:#162a42"/><path d="M135.54,112.89a15,15,0,0,0,1.62,1.37A10.67,10.67,0,0,1,135.54,112.89Z" transform="translate(-8.72 -10.38)" style="fill:#f80"/><path d="M136.6,115.08a11.16,11.16,0,0,1-1.78-1.49l1.42-1.41a13.63,13.63,0,0,0,1.51,1.26Z" transform="translate(-8.72 -10.38)" style="fill:#162a42"/><path d="M136.14,82.13a4.35,4.35,0,0,1,1.5-.92,14.13,14.13,0,0,1-2.92,2.05A13.79,13.79,0,0,0,136.14,82.13Z" transform="translate(-8.72 -10.38)" style="fill:#f80"/><path d="M135.19,84.15l-1-1.7a15.3,15.3,0,0,0,1.32-1.06,5.16,5.16,0,0,1,1.85-1.12l4.58-1.54L138.31,82A15.91,15.91,0,0,1,135.19,84.15Z" transform="translate(-8.72 -10.38)" style="fill:#162a42"/><path d="M134.78,46.26a12.54,12.54,0,0,1,.51,1.41,4.6,4.6,0,0,1-1-1.9A6.82,6.82,0,0,1,134,42.9,9,9,0,0,0,134.78,46.26Z" transform="translate(-8.72 -10.38)" style="fill:#f80"/><path d="M137.46,51.35l-2.88-3a5.39,5.39,0,0,1-1.3-2.31,7.71,7.71,0,0,1-.27-3.29l2,.11a8,8,0,0,0,.69,3,12.66,12.66,0,0,1,.56,1.52Z" transform="translate(-8.72 -10.38)" style="fill:#162a42"/><path d="M135.67,58.71c-1.52,2.72-5.06,5-6,5.53a18.4,18.4,0,0,0,4.45-4.58,20.62,20.62,0,0,0,2.07-6,2.63,2.63,0,0,1,1.79-2.2l.32-.11a3.35,3.35,0,0,0-.57,1.36A20.35,20.35,0,0,1,135.67,58.71Z" transform="translate(-8.72 -10.38)" style="fill:#f80"/><path d="M130.16,65.12l-1.09-1.66a17,17,0,0,0,4.19-4.29,19.29,19.29,0,0,0,2-5.69,3.62,3.62,0,0,1,2.45-2.95l3.45-1.24-2,2.68a2.51,2.51,0,0,0-.39,1,21.93,21.93,0,0,1-2.18,6.26C134.92,62.11,131.3,64.51,130.16,65.12Z" transform="translate(-8.72 -10.38)" style="fill:#162a42"/><path d="M127.59,133.31a9.4,9.4,0,0,1,1,.77,13.09,13.09,0,0,0,2.84,1.91A10.18,10.18,0,0,1,127.59,133.31Z" transform="translate(-8.72 -10.38)" style="fill:#f80"/><path d="M131.08,136.92a11.12,11.12,0,0,1-4.24-2.95L122,128.6l6.08,3.86a9.66,9.66,0,0,1,1.15.87,12.12,12.12,0,0,0,2.63,1.77Z" transform="translate(-8.72 -10.38)" style="fill:#162a42"/><path d="M128.15,33.19c2.27-3.86,2.87-8,.75-12.1l-.05-.11c-.43-.93,0-1.23.73-1.57a5.86,5.86,0,0,1,.69-.28,1.19,1.19,0,0,0,.17,1c2.12,4.14,1.51,8.24-.75,12.1a16,16,0,0,1-6.25,5.95A15.49,15.49,0,0,0,128.15,33.19Z" transform="translate(-8.72 -10.38)" style="fill:#f80"/><path d="M123.92,39.07l-1-1.7a14.48,14.48,0,0,0,4.42-4.68c2.31-3.94,2.54-7.59.72-11.15l-.07-.14a2,2,0,0,1,1.2-2.89,6.89,6.89,0,0,1,.81-.33l2.12-.72-.84,2a1.36,1.36,0,0,0,.1.24c2.13,4.16,1.87,8.56-.78,13.07A16.93,16.93,0,0,1,123.92,39.07Z" transform="translate(-8.72 -10.38)" style="fill:#162a42"/><path d="M129.61,118.45a10.11,10.11,0,0,0,5.12,17.13,21.35,21.35,0,0,0,15.69-2.53,21.7,21.7,0,0,1-17.23,3.48,11.76,11.76,0,0,1-1.74-.54,13.09,13.09,0,0,1-2.84-1.91,9.4,9.4,0,0,0-1-.77,10.16,10.16,0,0,1,.49-13.91,3.81,3.81,0,0,0,1.11-1.34l-.33.14a6.71,6.71,0,0,1,1.87-1.09A3.82,3.82,0,0,1,129.61,118.45Z" transform="translate(-8.72 -10.38)" style="fill:#f80"/><path d="M137.91,138.06a22.68,22.68,0,0,1-4.94-.56,11.64,11.64,0,0,1-1.9-.58,14.72,14.72,0,0,1-3.13-2.09,7.52,7.52,0,0,0-.89-.68l-.21-.18a11.05,11.05,0,0,1-1-13.26l-3.75,1.74,6.17-5a7.43,7.43,0,0,1,2.14-1.24l2.15-.82-.86,2.13a3.75,3.75,0,0,1-1.08,1.43l-.25.23a9.34,9.34,0,0,0-2.34,9.2,9.16,9.16,0,0,0,7,6.25,20.37,20.37,0,0,0,15-2.42l1.05,1.71A23.54,23.54,0,0,1,137.91,138.06Z" transform="translate(-8.72 -10.38)" style="fill:#162a42"/><path d="M127.41,84.86A13.18,13.18,0,0,1,125,85c-.64,0-2.12,0-3.79-.08A34.45,34.45,0,0,0,121,81h0c2.22,1.49,4.64,3,5.56,3a12.32,12.32,0,0,0,5.21-.81c.32-.13.63-.27.92-.41a10.22,10.22,0,0,1-2.46,1.35A11.31,11.31,0,0,1,127.41,84.86Z" transform="translate(-8.72 -10.38)" style="fill:#f80"/><path d="M125.7,86l-.78,0c-.28,0-.72,0-1.26,0-.71,0-1.58,0-2.51-.05l-1,0v-1a33.63,33.63,0,0,0-.23-3.8v-2l1.56,1c4,2.67,4.9,2.86,5,2.87a11.26,11.26,0,0,0,4.78-.74c.3-.12.58-.25.85-.38l1.06,1.69a11.27,11.27,0,0,1-2.71,1.49,12.63,12.63,0,0,1-3,.79A13.76,13.76,0,0,1,125.7,86Zm-3.54-2.07,1.52,0h.09c-.46-.26-1-.59-1.65-1C122.14,83.26,122.15,83.59,122.16,83.91Z" transform="translate(-8.72 -10.38)" style="fill:#162a42"/><path d="M127.74,65.7c-.36,1.31-.21,4.38-2.1,1.49C125.61,67.15,126.49,66.59,127.74,65.7Z" transform="translate(-8.72 -10.38)" style="fill:#f80"/><path d="M126.86,69.39c-.86,0-1.5-.8-2.06-1.65s.16-1.33,1-1.87l1.4-1,2.31-1.65L128.71,66a7.84,7.84,0,0,0-.16.86C128.38,67.91,128.15,69.39,126.86,69.39Z" transform="translate(-8.72 -10.38)" style="fill:#162a42"/><path d="M165.85,142.19c-12.62-.14-25.27.47-37.88,1.12l-12.21.6-.21-.12a7,7,0,0,1-3.34-8.25,2.29,2.29,0,0,1,2.08-1.88,54.8,54.8,0,0,0,8-1.34,7.06,7.06,0,0,1,5.33,1,10.18,10.18,0,0,0,3.86,2.68c6.45,3.21,15.4,1.35,20.94-2.67a46.21,46.21,0,0,0,7.28-6.9c2.39-2.69,5.72-3.43,9.07-3.87,2-.26,3.71,1.33,4.19,3.62A13.54,13.54,0,0,1,169.25,139a30.76,30.76,0,0,1-3.39,2.74Z" transform="translate(-8.72 -10.38)" style="fill:#f80"/><path d="M115.51,144.92l-.32-.19-.17-.09a8,8,0,0,1-3.77-9.37,3.25,3.25,0,0,1,3-2.61,45.1,45.1,0,0,0,6.58-1l1.25-.26a8,8,0,0,1,6.07,1.12l.2.17a9,9,0,0,0,3.49,2.42,15.75,15.75,0,0,0,7.12,1.56,22.64,22.64,0,0,0,12.87-4.11,45,45,0,0,0,7.11-6.76c2.6-2.91,6.19-3.73,9.69-4.19,2.5-.32,4.71,1.58,5.3,4.4A14.5,14.5,0,0,1,170,139.72a20.56,20.56,0,0,1-2.58,2.15l-.54.4v.93h-1l-3.6,0c-11.19,0-22.11.51-34.22,1.14l-12.21.6Zm8.26-11.75a6.54,6.54,0,0,0-1.31.13l-1.23.26a46.56,46.56,0,0,1-6.88,1.1c-.4,0-.9.18-1.18,1.16a6,6,0,0,0,2.84,7.07q6-.27,11.91-.58c13.12-.68,24.93-1.22,37.07-1.13l.26-.2.94-.71a18.84,18.84,0,0,0,2.34-1.94,12.62,12.62,0,0,0,3.42-12c-.38-1.8-1.67-3-3.08-2.83-3.6.47-6.41,1.26-8.46,3.54a46.35,46.35,0,0,1-7.43,7,24.78,24.78,0,0,1-14,4.49,17.64,17.64,0,0,1-7.93-1.73,11,11,0,0,1-4.07-2.81A6,6,0,0,0,123.77,133.17Z" transform="translate(-8.72 -10.38)" style="fill:#162a42"/><path d="M125,45.23a14.93,14.93,0,0,1-.93,5.64,10.94,10.94,0,0,1-5.38,6.36,11.34,11.34,0,0,0,3.84-5.41.16.16,0,0,0,0-.08,17,17,0,0,0,1.94-5C124.6,46.23,124.47,45.63,125,45.23Z" transform="translate(-8.72 -10.38)" style="fill:#f80"/><path d="M119.13,58.13l-1-1.7a10.39,10.39,0,0,0,3.5-5l.11-.25a16.31,16.31,0,0,0,1.83-4.73,2.58,2.58,0,0,0,0-.29,2.28,2.28,0,0,1,.83-1.78l1.54-1.16L126,45.2a15.91,15.91,0,0,1-1,6A11.93,11.93,0,0,1,119.13,58.13Z" transform="translate(-8.72 -10.38)" style="fill:#162a42"/><path d="M124.38,107.65a15.3,15.3,0,0,0,3.35-1.09,12,12,0,0,1-4.89,2,22.31,22.31,0,0,1-2.29.38,9.32,9.32,0,0,1-2.43-.65A38.55,38.55,0,0,0,124.38,107.65Z" transform="translate(-8.72 -10.38)" style="fill:#f80"/><path d="M120.54,110l-.12,0a10.33,10.33,0,0,1-2.69-.72l-4-1.7,4.29-.22a39.49,39.49,0,0,0,6.09-.65,14.55,14.55,0,0,0,3.13-1l8.39-4.08-7.34,5.76a12.73,12.73,0,0,1-5.29,2.24c-.71.15-1.49.28-2.38.39Z" transform="translate(-8.72 -10.38)" style="fill:#162a42"/><path d="M122.14,87c.51,2.14-.47,4.1-1.94,6.16a22,22,0,0,0,.91-4.64A1.67,1.67,0,0,1,122.14,87Z" transform="translate(-8.72 -10.38)" style="fill:#f80"/><path d="M117.48,98.64l1.76-5.8a20,20,0,0,0,.87-4.41,2.68,2.68,0,0,1,1.61-2.36l1.11-.51.28,1.19c.64,2.66-.7,5-2.1,7Z" transform="translate(-8.72 -10.38)" style="fill:#162a42"/><path d="M121.11,88.5a22,22,0,0,1-.91,4.64l-.68.91a23.64,23.64,0,0,0,1.66-9.15,6.31,6.31,0,0,1,1,2.08A1.67,1.67,0,0,0,121.11,88.5Z" transform="translate(-8.72 -10.38)" style="fill:#f80"/><path d="M115.76,100.61l2.83-6.94a22.51,22.51,0,0,0,1.59-8.77V81.66L122,84.34a7.07,7.07,0,0,1,1.11,2.41l.2.8-.75.34a.7.7,0,0,0-.46.69,22.76,22.76,0,0,1-.94,4.85l0,.16-.1.13c-.22.31-.46.63-.7.94Z" transform="translate(-8.72 -10.38)" style="fill:#162a42"/><path d="M121.17,84.88c-3.12-.11-6.91-.46-7.23-1.8C112.78,78.21,118.41,80.89,121.17,84.88Z" transform="translate(-8.72 -10.38)" style="fill:#f80"/><path d="M123.12,86l-2-.07c-5.41-.18-7.78-.93-8.16-2.57a3.45,3.45,0,0,1,.33-3.06,2.13,2.13,0,0,1,1.76-.79c2,0,5,2.13,6.93,4.85Zm-8.06-4.49a.38.38,0,0,0-.19,0c-.05,0-.18.41,0,1.36,0,0,.54.61,4,.9C117.51,82.37,115.93,81.46,115.06,81.46Z" transform="translate(-8.72 -10.38)" style="fill:#162a42"/><path d="M121,81c-2.26-1.52-4.29-3-4.29-3S120.39,76,121,81Z" transform="translate(-8.72 -10.38)" style="fill:#f80"/><path d="M122.18,83l-1.79-1.21c-2.25-1.52-4.31-3.06-4.33-3.07l-1.28-1L116.2,77a4.67,4.67,0,0,1,2-.49c1,0,3.28.42,3.72,4.31Z" transform="translate(-8.72 -10.38)" style="fill:#162a42"/><path d="M117,27.4a2.39,2.39,0,0,0,.13-.28A.56.56,0,0,1,117,27.4Z" transform="translate(-8.72 -10.38)" style="fill:#f80"/><path d="M117.84,28l-1.36-.86h.14l.4.28-.4-.28h0l-.42-.31h0a.34.34,0,0,0,0,.1h0a.36.36,0,0,0,0-.09l2-6.41v6.71A1.47,1.47,0,0,1,117.84,28Z" transform="translate(-8.72 -10.38)" style="fill:#162a42"/><path d="M112.23,104.93a19.65,19.65,0,0,0,7.15-9.44c.3-.78.58-1.56.82-2.35,1.47-2.06,2.45-4,1.94-6.16a3.28,3.28,0,0,1,.73-.23,2,2,0,0,0-.23.8,24.19,24.19,0,0,1-1.72,7A19.24,19.24,0,0,1,112.23,104.93Z" transform="translate(-8.72 -10.38)" style="fill:#f80"/><path d="M112.71,105.81l-1-1.7a18.59,18.59,0,0,0,6.79-9c.32-.83.58-1.57.79-2.28l.05-.16.1-.14c1.63-2.27,2.14-3.82,1.78-5.34l-.19-.79.74-.35a5,5,0,0,1,.94-.3l2.18-.46-1.1,1.93a1,1,0,0,0-.1.39,24.84,24.84,0,0,1-1.79,7.27A20.06,20.06,0,0,1,112.71,105.81Z" transform="translate(-8.72 -10.38)" style="fill:#162a42"/><path d="M113.13,58.46a12.34,12.34,0,0,0,4.54-2,12.05,12.05,0,0,0,4.88-4.68.16.16,0,0,1,0,.08,11.34,11.34,0,0,1-3.84,5.41,12.15,12.15,0,0,1-2.46.91c-1,.24-2,.48-3,.7Z" transform="translate(-8.72 -10.38)" style="fill:#f80"/><path d="M112.45,60l-.51-2.33,1-.22a11.54,11.54,0,0,0,4.18-1.88l.13-.08a11,11,0,0,0,4.48-4.3L125.4,45l-1.94,7.22A12.4,12.4,0,0,1,119.28,58l-.15.09a12.92,12.92,0,0,1-2.66,1c-1,.26-2,.49-3,.72Z" transform="translate(-8.72 -10.38)" style="fill:#162a42"/><path d="M118.19,119.79a12.47,12.47,0,0,1-8.16-4.92,12.66,12.66,0,0,1-1.59-6.11,2.5,2.5,0,0,1,1.52-2.5c.24-.12.48-.24.71-.37a2.48,2.48,0,0,0-.69,1.92,12.21,12.21,0,0,0,3.53,8.67A22.42,22.42,0,0,0,118.19,119.79Z" transform="translate(-8.72 -10.38)" style="fill:#f80"/><path d="M123.67,121.9,118,120.78a13.58,13.58,0,0,1-8.79-5.33l0-.09a13.75,13.75,0,0,1-1.72-6.58,3.51,3.51,0,0,1,2.08-3.42c.24-.11.46-.23.68-.35l6.06-3.24-4.88,4.83a1.47,1.47,0,0,0-.4,1.19,11.2,11.2,0,0,0,3.24,8,19.11,19.11,0,0,0,4.06,2.9Z" transform="translate(-8.72 -10.38)" style="fill:#162a42"/><path d="M121.48,37.93a29.58,29.58,0,0,1-7.85,3.52,15.89,15.89,0,0,1-2,.09,4.71,4.71,0,0,1,1.14-.41,33.79,33.79,0,0,0,8.9-3.35Z" transform="translate(-8.72 -10.38)" style="fill:#f80"/><path d="M111.91,42.55l-3.9-.07,3.16-1.8a5.13,5.13,0,0,1,1.4-.52,32.49,32.49,0,0,0,8.65-3.25l1.06,1.69-.27.18a30.7,30.7,0,0,1-8.09,3.63l-.17,0A16.5,16.5,0,0,1,111.91,42.55Z" transform="translate(-8.72 -10.38)" style="fill:#162a42"/><path d="M104.72,92.33l.36-.41.22.21-.4.36Z" transform="translate(-8.72 -10.38)" style="fill:#f80"/><path d="M104.86,93.86l-.67-.66-.12-.12-.76-.65,1.7-2,1.75,1.74Z" transform="translate(-8.72 -10.38)" style="fill:#162a42"/><path d="M104.72,92.33l.18.16c0,.11-.1.23-.23.13S104.7,92.43,104.72,92.33Z" transform="translate(-8.72 -10.38)" style="fill:#f80"/><path d="M104.76,93.66h-.33l-.35-.23a1.07,1.07,0,0,1-.34-1.28l.33-1.67,1.31,1.09.22.21.43.42-.18.58A1.14,1.14,0,0,1,104.76,93.66Zm.12-1.3.78.16a1,1,0,0,0-.38-.69Zm-.12-.7a.88.88,0,0,0-.82.53l.71.22,0,0Z" transform="translate(-8.72 -10.38)" style="fill:#162a42"/><path d="M105.08,91.92a12.19,12.19,0,0,0,.62-9.09c-.65-2.28-1.72-4.41-2.52-6.63a20.5,20.5,0,0,1-1.45-7.94v0c0-.15,0-.32.06-.48a8.75,8.75,0,0,1,4.89-6.6,8.68,8.68,0,0,0-3.35,5.65c-.5,3.5.44,6.74,1.73,9.93a30.88,30.88,0,0,1,2.22,6.86c.46,3.09.31,6.06-2,8.53Z" transform="translate(-8.72 -10.38)" style="fill:#f80"/><path d="M105.33,93.57l-1.47-1.45.32-.65a11.1,11.1,0,0,0,.56-8.36,36.18,36.18,0,0,0-1.49-4c-.35-.85-.7-1.7-1-2.56a21.64,21.64,0,0,1-1.51-8.32v-.11c0-.16,0-.33.06-.5a9.75,9.75,0,0,1,5.44-7.35l8.94-4.34-7.89,6a7.64,7.64,0,0,0-3,5c-.49,3.42.57,6.68,1.67,9.41l.23.56a29.32,29.32,0,0,1,2,6.52c.41,2.78.53,6.36-2.24,9.36Z" transform="translate(-8.72 -10.38)" style="fill:#162a42"/><path d="M103.48,58a16,16,0,0,1-2-.66,1.77,1.77,0,0,1,1.41.2A2.08,2.08,0,0,1,103.48,58Z" transform="translate(-8.72 -10.38)" style="fill:#f80"/><path d="M106.13,59.77,103.22,59a17.94,17.94,0,0,1-2.07-.69l-2.7-1.1,2.81-.79a2.72,2.72,0,0,1,2.18.3,2.82,2.82,0,0,1,.82.7Z" transform="translate(-8.72 -10.38)" style="fill:#162a42"/><path d="M98.71,132.88l-.77.5c-.32.21-.65.4-1,.59A15,15,0,0,1,98.71,132.88Z" transform="translate(-8.72 -10.38)" style="fill:#f80"/><path d="M97.44,134.84l-1-1.7.16-.11A15.59,15.59,0,0,1,98.25,132l1,1.72-.78.52C98.13,134.45,97.79,134.65,97.44,134.84Z" transform="translate(-8.72 -10.38)" style="fill:#162a42"/><path d="M111.37,29.79c1-.25,1.72-.37,2.37-.52a17.5,17.5,0,0,1-3.91,1.47,32.55,32.55,0,0,1-7.23,1.07,3.84,3.84,0,0,1-3.38-1.59,18.63,18.63,0,0,0-1.6-1.95,6.16,6.16,0,0,0-1.35-1.42c-.27-.58,0-1.13.51-1.75a16.26,16.26,0,0,1,5.06-4.24,15.77,15.77,0,0,0-3.53,3.3c-.69.88-1,1.6.13,2.49a14.9,14.9,0,0,1,2.32,2.62,3.84,3.84,0,0,0,3.38,1.59A32.63,32.63,0,0,0,111.37,29.79Z" transform="translate(-8.72 -10.38)" style="fill:#f80"/><path d="M102.44,32.81a4.78,4.78,0,0,1-4-2A20.81,20.81,0,0,0,96.91,29l-.12-.14a5.08,5.08,0,0,0-1.14-1.19l-.19-.15-.11-.23A2.66,2.66,0,0,1,96,24.49,17.31,17.31,0,0,1,101.36,20l1,1.7a15.24,15.24,0,0,0-3.31,3.09c-.54.69-.5.72,0,1.1a14.91,14.91,0,0,1,2.43,2.73A2.89,2.89,0,0,0,104,29.86h.13a31.9,31.9,0,0,0,7-1c.62-.15,1.15-.26,1.62-.36l.77-.16,7.43-1.74-6.73,3.59a18.62,18.62,0,0,1-4.13,1.56,34,34,0,0,1-7.45,1.1Z" transform="translate(-8.72 -10.38)" style="fill:#162a42"/><path d="M97.62,28.27a7.61,7.61,0,0,0-.72-.67,2.06,2.06,0,0,1-.63-.75A6.16,6.16,0,0,1,97.62,28.27Z" transform="translate(-8.72 -10.38)" style="fill:#f80"/><path d="M96.89,29a5.76,5.76,0,0,0-.62-.59,3,3,0,0,1-.92-1.12L93.74,23.6l3.14,2.46a7.14,7.14,0,0,1,1.57,1.65Z" transform="translate(-8.72 -10.38)" style="fill:#162a42"/><path d="M119.75,131.07c-5.12,1.24-10.23,1.72-15.17.11a20.5,20.5,0,0,1-2.74-1.12,21.27,21.27,0,0,1-3.16-1.93A4.34,4.34,0,0,0,98,127c-.45-.6-.94-1.17-1.38-1.78a10.32,10.32,0,0,1-1.85-8.9,2,2,0,0,1,.17.29.73.73,0,0,1,0,.25c0,6,3.29,9.76,8.36,12.3,5.79,2.89,11.84,2.49,17.91,1a4.58,4.58,0,0,0,.56-.17A4.22,4.22,0,0,1,119.75,131.07Z" transform="translate(-8.72 -10.38)" style="fill:#f80"/><path d="M111.34,133.21a22.56,22.56,0,0,1-7.07-1.08A21.41,21.41,0,0,1,101.4,131a21.06,21.06,0,0,1-3.32-2l-.25-.19-.1-.3a3.28,3.28,0,0,0-.5-.88q-.3-.42-.63-.81c-.26-.33-.51-.65-.75-1a11.24,11.24,0,0,1-2-9.72l.58-2.36,1.33,2.22a1.33,1.33,0,0,1,.18.36,1.82,1.82,0,0,1,.09.56c0,5,2.51,8.76,7.81,11.4a19.76,19.76,0,0,0,9,2,34.47,34.47,0,0,0,8.18-1.11l.45-.13,4.17-1.57-3.1,3.2A5.21,5.21,0,0,1,120,132,36.42,36.42,0,0,1,111.34,133.21Z" transform="translate(-8.72 -10.38)" style="fill:#162a42"/><path d="M95.42,50.7a12.47,12.47,0,0,1,1.22,3.24,13.78,13.78,0,0,1-3.55-11.55A2.34,2.34,0,0,1,93.7,44,16,16,0,0,0,95.42,50.7Z" transform="translate(-8.72 -10.38)" style="fill:#f80"/><path d="M98.45,57.5l-2.56-2.9a14.8,14.8,0,0,1-3.78-12.36l.29-1.92,1.39,1.35a3.35,3.35,0,0,1,.91,2.26,15,15,0,0,0,1.6,6.3,13.6,13.6,0,0,1,1.32,3.49Z" transform="translate(-8.72 -10.38)" style="fill:#162a42"/><path d="M108.54,57.74a15.47,15.47,0,0,0,9.13-1.32,12.34,12.34,0,0,1-4.54,2,17.65,17.65,0,0,1-6.13.23,24.89,24.89,0,0,1-3.52-.67,2.08,2.08,0,0,0-.54-.46,1.77,1.77,0,0,0-1.41-.2,12.52,12.52,0,0,1-4.76-3.27l-.13-.15h0a12.47,12.47,0,0,0-1.22-3.24A16,16,0,0,1,93.7,44a2.34,2.34,0,0,0-.61-1.61,16.57,16.57,0,0,1,.35-1.64,8.46,8.46,0,0,1,4.63-5.25A7.74,7.74,0,0,0,95,39.8a13.85,13.85,0,0,0,3.33,13.34C101,56.12,104.64,57.26,108.54,57.74Z" transform="translate(-8.72 -10.38)" style="fill:#f80"/><path d="M109.52,59.85a21.91,21.91,0,0,1-2.64-.17,26.07,26.07,0,0,1-3.67-.7l-.31-.09-.21-.25a.75.75,0,0,0-.25-.21.72.72,0,0,0-.64-.1l-.33.09-.32-.13A13.62,13.62,0,0,1,96,54.76l-.39-.42v-.29a11.56,11.56,0,0,0-1.1-2.87,17,17,0,0,1-1.84-7.12,1.45,1.45,0,0,0-.3-1L92,42.75l.08-.51a15.93,15.93,0,0,1,.36-1.75,9.41,9.41,0,0,1,5.14-5.87l1,1.69a6.74,6.74,0,0,0-2.71,3.75,12.89,12.89,0,0,0,3.11,12.41c2.16,2.4,5.13,3.72,9.61,4.28a20,20,0,0,0,2.4.15h0a13.27,13.27,0,0,0,6.15-1.37l1.05,1.69a13.08,13.08,0,0,1-4.91,2.21A16.84,16.84,0,0,1,109.52,59.85Z" transform="translate(-8.72 -10.38)" style="fill:#162a42"/><path d="M98.76,59A3.63,3.63,0,0,1,100,58.3a4.27,4.27,0,0,0-.78,1.14c-.52,1.08-1,2.19-1.53,3.27A20.13,20.13,0,0,1,90,71.42l-.4.22a18.82,18.82,0,0,0,5.07-5.42c.52-.82,1-1.68,1.46-2.57.54-1.07,1-2.18,1.54-3.26A3.71,3.71,0,0,1,98.76,59Z" transform="translate(-8.72 -10.38)" style="fill:#f80"/><path d="M90.1,72.53l-1-1.71a17.92,17.92,0,0,0,4.81-5.14c.48-.76.94-1.57,1.41-2.48.3-.6.58-1.21.86-1.82s.44-1,.67-1.42a4.65,4.65,0,0,1,1.33-1.74,4.77,4.77,0,0,1,1.63-.88l3.57-.92L100.73,59a3.21,3.21,0,0,0-.59.87c-.22.46-.43.93-.65,1.39-.29.63-.58,1.27-.89,1.89-2.18,4.28-4.74,7.18-8.06,9.12Z" transform="translate(-8.72 -10.38)" style="fill:#162a42"/><path d="M89.67,135.26A13.44,13.44,0,0,0,94.21,134a11.38,11.38,0,0,1-3.47,1.72,11.79,11.79,0,0,1-2.18-.23A8,8,0,0,1,89.67,135.26Z" transform="translate(-8.72 -10.38)" style="fill:#f80"/><path d="M90.89,136.67h-.16a12.63,12.63,0,0,1-2.37-.25l-4.08-.83,4-1.12a7.46,7.46,0,0,1,1-.18l.21,0a12.43,12.43,0,0,0,4.2-1.22l1.06,1.7A12.57,12.57,0,0,1,91,136.63Z" transform="translate(-8.72 -10.38)" style="fill:#162a42"/><path d="M102.09,103.9a14.17,14.17,0,0,0,10.12-1.32,14.24,14.24,0,0,1-11.65,2.26c-4.81-1.2-6.92-4.69-7.85-9.11a18.44,18.44,0,0,1-.37-2.67q0-.77,0-1.53c.06-3.11.64-6.21.11-9.33s-1.6-5.57-4.33-7.27A9.06,9.06,0,0,0,85,73.72c.5-.15,1-.3,1.49-.47h0a2.06,2.06,0,0,0,.6.16,8.72,8.72,0,0,1,6.1,5.81c1.08,3.07.84,6.23.67,9.37a23.3,23.3,0,0,0,.37,6.19C95.18,99.2,97.29,102.69,102.09,103.9Z" transform="translate(-8.72 -10.38)" style="fill:#f80"/><path d="M103.88,106.26a14.26,14.26,0,0,1-3.57-.45c-4.61-1.16-7.42-4.39-8.58-9.87a19.23,19.23,0,0,1-.38-2.81c0-.56,0-1.09,0-1.62,0-1,.1-2,.17-3a25.61,25.61,0,0,0,0-6.13c-.54-3.23-1.74-5.26-3.88-6.59a8.09,8.09,0,0,0-2.77-1.08l-3.94-.79,3.85-1.15c.49-.15,1-.29,1.45-.46l.16,0h.45l.24.14s0,0,0,0l.32.07a9.74,9.74,0,0,1,6.76,6.44c1.09,3.1.92,6.24.75,9.28l0,.47a22.32,22.32,0,0,0,.34,5.94c1,4.72,3.27,7.38,7.12,8.35a13.28,13.28,0,0,0,9.4-1.23l1.05,1.7A15.66,15.66,0,0,1,103.88,106.26Z" transform="translate(-8.72 -10.38)" style="fill:#162a42"/><path d="M92.45,82.2c.53,3.12,0,6.22-.11,9.33q0,.77,0,1.53a31.79,31.79,0,0,1,0-3.52c.17-3.15.41-6.3-.67-9.37a8.7,8.7,0,0,0-6.1-5.81c-.28-.09-.69,0-.88-.54l.33-.1a9.06,9.06,0,0,1,3.1,1.21C90.85,76.63,92,79.23,92.45,82.2Z" transform="translate(-8.72 -10.38)" style="fill:#f80"/><path d="M91.35,93.13a29.46,29.46,0,0,1,0-3.65l0-.47c.16-3,.32-5.78-.64-8.51a7.75,7.75,0,0,0-5.44-5.18,1.75,1.75,0,0,1-1.54-1.17l-.35-1L85,72.68l.26.06a10.15,10.15,0,0,1,3.43,1.34,10.89,10.89,0,0,1,4.79,8,27,27,0,0,1,.06,6.6c-.07,1-.14,2-.16,2.91,0,.5,0,1,0,1.48Z" transform="translate(-8.72 -10.38)" style="fill:#162a42"/><path d="M81.64,140.46l.26.33Z" transform="translate(-8.72 -10.38)" style="fill:#f80"/><polygon points="72.4 131.04 72.14 130.72 72.14 130.72 72.13 130.7 73.69 129.45 73.95 129.77 72.4 131.04" style="fill:#162a42"/><path d="M81.39,140.13l.25.33Z" transform="translate(-8.72 -10.38)" style="fill:#f80"/><polygon points="72.12 130.68 71.86 130.34 73.47 129.16 73.71 129.47 72.12 130.68" style="fill:#162a42"/><path d="M82.44,63.68c0-.07-1-1.41-1.76-2.88.57.94,1.28,1.81,1.92,2.71Z" transform="translate(-8.72 -10.38)" style="fill:#f80"/><path d="M81.44,66.3V64l-.13-.19c-.36-.55-1-1.47-1.51-2.49l1.74-1A20.27,20.27,0,0,0,82.75,62c.22.31.45.61.66.91l.49.7-.72.71Z" transform="translate(-8.72 -10.38)" style="fill:#162a42"/><path d="M97.62,28.27c1,1.51,1,3.26-.21,5.14a17.92,17.92,0,0,1-7.58,6.41c-2.82,1.4-5.74,2.64-8,4.92a18.38,18.38,0,0,1-1.54,1.63,5.19,5.19,0,0,1-3.28.71,22.59,22.59,0,0,0-13.43,4.45c-1.19.91-2.3,1.79-3.9,1.81-2.39,0-3.59-1.42-3-3.69,1-3.89,3.77-6.3,7.09-8.22,2.92-1.69,6.2-2.55,9.4-3.59,4.08-1.33,8.2-2.55,12-4.64A2.84,2.84,0,0,0,86.48,32c-2.31.79-4.36,1.51-6.41,2.2a23.45,23.45,0,0,1-5.68,1.19c-.57,0-1.27.25-1.62-.36s0-1.14.41-1.6C76.6,29,80.87,25.8,86.62,24.87c3.45-.56,6.73-.27,9.6,1.95l0,0a2.06,2.06,0,0,0,.63.75A7.61,7.61,0,0,1,97.62,28.27Z" transform="translate(-8.72 -10.38)" style="fill:#f80"/><path d="M59.61,54.34a4,4,0,0,1-3.37-1.42,3.9,3.9,0,0,1-.54-3.52c1.18-4.63,4.66-7.15,7.55-8.83a38.48,38.48,0,0,1,7.84-3.12l1.76-.56,1.4-.45h0a4.18,4.18,0,0,1-.61.05,1.85,1.85,0,0,1-1.71-.94,2.42,2.42,0,0,1,.48-2.7c3.94-5.14,8.54-8.07,14.08-9,4.31-.7,7.58,0,10.37,2.15l.21.15.14.27a1.4,1.4,0,0,0,.35.37,10,10,0,0,1,.82.76l.1.13c.88,1.3,1.56,3.45-.19,6.23a18.91,18.91,0,0,1-8,6.78l-1.11.54a23.2,23.2,0,0,0-6.62,4.18c-.19.19-.36.39-.54.6a7.24,7.24,0,0,1-1.1,1.12,5.56,5.56,0,0,1-3.55.92H77a21.47,21.47,0,0,0-12.86,4.25l-.12.09a7.16,7.16,0,0,1-4.36,1.92ZM88.71,30.2l-1.37,2.33A3.65,3.65,0,0,1,85.76,34l-.14.07a59,59,0,0,1-10.73,4.26l-1.41.46-1.79.57a35.73,35.73,0,0,0-7.43,2.94c-3.8,2.2-5.84,4.54-6.62,7.59a2.14,2.14,0,0,0,.18,1.81,2.26,2.26,0,0,0,1.79.64v1l.06-1a5.46,5.46,0,0,0,3.19-1.51l.12-.09a23.67,23.67,0,0,1,14-4.66h.32a3.84,3.84,0,0,0,2.36-.5,5.44,5.44,0,0,0,.81-.84c.21-.24.41-.48.64-.71a25.22,25.22,0,0,1,7.17-4.57l1.1-.54a16.69,16.69,0,0,0,7.18-6c.94-1.5,1-2.8.27-4a7,7,0,0,0-.57-.53,3.11,3.11,0,0,1-.78-.86c-2.39-1.75-5.08-2.25-8.71-1.66-5,.81-9.2,3.5-12.81,8.21-.15.21-.23.34-.28.42l.3,0,.33,0a21.9,21.9,0,0,0,5.43-1.14l4.47-1.53Z" transform="translate(-8.72 -10.38)" style="fill:#162a42"/><path d="M73.1,128.63a8.51,8.51,0,0,0,.83-.34A8.51,8.51,0,0,1,73.1,128.63Z" transform="translate(-8.72 -10.38)" style="fill:#f80"/><path d="M73.43,129.58l-.66-1.89a7.76,7.76,0,0,0,.74-.31l.85,1.81A9.2,9.2,0,0,1,73.43,129.58Z" transform="translate(-8.72 -10.38)" style="fill:#162a42"/><path d="M72.43,68.64c-.29-.34-.55-.67-.79-1,0-.06-.06-.11-.08-.16A10.22,10.22,0,0,0,72.43,68.64Z" transform="translate(-8.72 -10.38)" style="fill:#f80"/><path d="M71.67,69.29l-.12-.14c-.26-.31-.5-.62-.72-.92a1.88,1.88,0,0,1-.16-.29l1.73-1a7.53,7.53,0,0,0,.68.92l.11.13Z" transform="translate(-8.72 -10.38)" style="fill:#162a42"/><path d="M70.25,59.77q-.07.34-.12.69c0-.16-.42-.11-.47-.25s0,0,0,0v0A7,7,0,0,1,70.33,59a.6.6,0,0,1,.06.22C70.36,59.37,70.29,59.57,70.25,59.77Z" transform="translate(-8.72 -10.38)" style="fill:#f80"/><path d="M69.72,61.31a1.39,1.39,0,0,1-.82-.44l-.47-.44.3-.66a8,8,0,0,1,.78-1.39l1.18-1.72.6,2a1.18,1.18,0,0,1,.09.65c0,.16-.06.29-.1.43a2.25,2.25,0,0,0,0,.22c0,.21-.08.42-.11.63l-.53,0,0,.08-.19-.1-1-.06-.24.26A.89.89,0,0,0,69.72,61.31Z" transform="translate(-8.72 -10.38)" style="fill:#162a42"/><path d="M69.13,128.94a7.2,7.2,0,0,0,3.2-.07A7.2,7.2,0,0,1,69.13,128.94Z" transform="translate(-8.72 -10.38)" style="fill:#f80"/><path d="M70.57,130.09h0v-2a6.51,6.51,0,0,0,1.51-.19h0l.49,1.94A8.49,8.49,0,0,1,70.57,130.09Zm0,0h0a8.13,8.13,0,0,1-1.63-.17h0l.42-2a6.34,6.34,0,0,0,1.23.13Z" transform="translate(-8.72 -10.38)" style="fill:#162a42"/><path d="M71.56,67.48A9.5,9.5,0,0,1,70,62.71,20.49,20.49,0,0,0,71.56,67.48Z" transform="translate(-8.72 -10.38)" style="fill:#f80"/><path d="M70.72,68A10.42,10.42,0,0,1,69,62.76l2-.25a19.19,19.19,0,0,0,1.46,4.54Z" transform="translate(-8.72 -10.38)" style="fill:#162a42"/><path d="M70.12,60.48A12,12,0,0,0,70,62.7c-.05-.23-.08-.43-.11-.58h0A14.55,14.55,0,0,1,70.12,60.48Z" transform="translate(-8.72 -10.38)" style="fill:#f80"/><path d="M69,62.89c0-.24-.09-.44-.11-.6l0-.17a13.6,13.6,0,0,1,.24-1.84l2,.34a10.83,10.83,0,0,0-.1,2Z" transform="translate(-8.72 -10.38)" style="fill:#162a42"/><path d="M70.12,60.48a14.55,14.55,0,0,0-.22,1.64c-.17-1-.23-1.74-.24-1.91,0,.14.47.09.47.25Z" transform="translate(-8.72 -10.38)" style="fill:#f80"/><path d="M70.38,70.73l-1.46-8.44c-.2-1.17-.25-1.93-.26-2l-.43-6.89,2.22,6.07a1.1,1.1,0,0,1,.68,1l0,.32a11.93,11.93,0,0,0-.18,1.4Z" transform="translate(-8.72 -10.38)" style="fill:#162a42"/><path d="M69.9,62.12c0,.15.06.35.11.58h0a9.5,9.5,0,0,0,1.55,4.77h0c0,.05,0,.1.08.16A8.2,8.2,0,0,1,69.9,62.12Z" transform="translate(-8.72 -10.38)" style="fill:#f80"/><path d="M70.83,68.24,70.68,68l-.12-.17a9,9,0,0,1-1.65-5.78l.49-9L70.89,62c0,.07,0,.16,0,.26l0,.05,0,.39a8.54,8.54,0,0,0,1.34,4.2l.21.32v.3h-.68Z" transform="translate(-8.72 -10.38)" style="fill:#162a42"/><path d="M69.65,60.17v0Z" transform="translate(-8.72 -10.38)" style="fill:#f80"/><polygon points="61.93 52.22 59.79 50.08 59.98 49.47 61.93 43.62 61.93 52.22" style="fill:#162a42"/><path d="M68,96.15c-.4-.33-.81-.65-1.23-.94-.19-1.49-.29-3-.34-4.46a21.35,21.35,0,0,1,.47-5.5,16.65,16.65,0,0,1,2.34-5.53,10.91,10.91,0,0,1,4.25-3.83,11,11,0,0,0-2.71,2.88,18.3,18.3,0,0,0-2.81,11,41.65,41.65,0,0,0,.7,6.72,2.09,2.09,0,0,1-.29,0Z" transform="translate(-8.72 -10.38)" style="fill:#f80"/><path d="M69.89,97.79l-1.61-.31a1.07,1.07,0,0,1-.6-.26c-.08,0-.19-.15-.3-.24-.45-.38-.84-.67-1.23-1l-.37-.25,0-.44a45.39,45.39,0,0,1-.35-4.56A23.05,23.05,0,0,1,65.87,85a17.87,17.87,0,0,1,2.48-5.86A12.09,12.09,0,0,1,73,75l1,1.7a10.15,10.15,0,0,0-2.47,2.62,17.23,17.23,0,0,0-2.64,10.44,40.52,40.52,0,0,0,.68,6.57Z" transform="translate(-8.72 -10.38)" style="fill:#162a42"/><path d="M71.64,67.65a10.81,10.81,0,0,0,4.59,5c-5.62-2.81-8.4-8.25-6.58-12.49v0s0,0,0,0c0,.17.07.87.24,1.91h0A8.2,8.2,0,0,0,71.64,67.65Z" transform="translate(-8.72 -10.38)" style="fill:#f80"/><path d="M75.78,73.55C70,70.66,67,65.15,68.47,60.47l0,0,.21-.44.09-.22h0l0,0,.32.17.61.22.65-.65h0l.51.51-.19.39c0,.3.09.84.21,1.57v.17a7.25,7.25,0,0,0,1.55,4.94l.09.15a9.75,9.75,0,0,0,4.15,4.56Z" transform="translate(-8.72 -10.38)" style="fill:#162a42"/><path d="M68.65,128.82l.48.12Z" transform="translate(-8.72 -10.38)" style="fill:#f80"/><path d="M68.94,129.92l-.56-.14.54-1.93.42.11Z" transform="translate(-8.72 -10.38)" style="fill:#162a42"/><path d="M67.93,128.58l.48.16A4.5,4.5,0,0,1,67.93,128.58Z" transform="translate(-8.72 -10.38)" style="fill:#f80"/><path d="M68.11,129.7c-.18,0-.37-.12-.55-.19l.73-1.87a3.52,3.52,0,0,0,.42.15Z" transform="translate(-8.72 -10.38)" style="fill:#162a42"/><path d="M67.37,119.64c.28,0,.17.18.19.31s0,.06-.07.1,0,0-.06-.06l-.05-.07a.37.37,0,0,1,0-.21A.64.64,0,0,0,67.37,119.64Z" transform="translate(-8.72 -10.38)" style="fill:#f80"/><path d="M67.79,121.48l-1.31-1.12a1.34,1.34,0,0,1-.12-.79l0-.2.18-.6.62-.11a1,1,0,0,1,.23,0,1.12,1.12,0,0,1,.84.36,1.18,1.18,0,0,1,.28.89l0,.38-.3.36Zm-1.17-1.43a1,1,0,0,0,.18.3.91.91,0,0,0,.64.29l0-.63Zm1.12-.3.59.17a.64.64,0,0,0,0-.43Zm.32-.52-.31.45.46-.31A.62.62,0,0,0,68.06,119.23Z" transform="translate(-8.72 -10.38)" style="fill:#162a42"/><path d="M67.38,119.92l.05.07Z" transform="translate(-8.72 -10.38)" style="fill:#f80"/><polygon points="57.94 110.25 57.77 109.99 59.47 108.97 59.34 109.07 59.49 108.99 59.05 109.35 59.55 109.09 59.05 109.35 57.94 110.25" style="fill:#162a42"/><path d="M67.37,119.64a.64.64,0,0,1,0,.07.25.25,0,0,1,0-.07Z" transform="translate(-8.72 -10.38)" style="fill:#f80"/><polygon points="58.65 110.26 58.65 109.43 57.63 109.33 57.63 109.18 57.91 108.27 59.97 108.26 59.61 109.54 59.51 109.53 59.6 109.55 59.5 109.52 58.65 109.43 58.65 110.26" style="fill:#162a42"/><path d="M67.37,119.62v0h0Z" transform="translate(-8.72 -10.38)" style="fill:#f80"/><polygon points="58.63 110.26 56.18 110.26 62.23 104.32 59.65 109.49 59.65 110.26 58.63 110.26" style="fill:#162a42"/><path d="M67.35,119.71a.37.37,0,0,0,0,.21A.37.37,0,0,1,67.35,119.71Z" transform="translate(-8.72 -10.38)" style="fill:#f80"/><path d="M66.5,120.4a1.31,1.31,0,0,1-.13-.87l1.34.21,0,0h0Z" transform="translate(-8.72 -10.38)" style="fill:#162a42"/><path d="M67.19,128.25c.24.12.49.23.73.33C67.68,128.48,67.43,128.37,67.19,128.25Z" transform="translate(-8.72 -10.38)" style="fill:#f80"/><path d="M67.56,129.51c-.27-.11-.55-.23-.82-.37l.9-1.79c.21.11.43.21.65.3Z" transform="translate(-8.72 -10.38)" style="fill:#162a42"/><path d="M68.14,140l-2.78-1c-2.73-4.35-5.87-8.46-8-13.15a13.85,13.85,0,0,1-1.28-4.79,3,3,0,0,1,1.33-2.91,6.14,6.14,0,0,1,1.14-.63,3,3,0,0,0-.93,2.59,13.85,13.85,0,0,0,1.28,4.79c2.21,4.78,5.43,9,8.2,13.42C67.42,138.89,67.78,139.44,68.14,140Z" transform="translate(-8.72 -10.38)" style="fill:#f80"/><path d="M70.63,142l-2.82-1L65,140l-.33-.11-.19-.3c-.8-1.26-1.62-2.5-2.45-3.75a71.36,71.36,0,0,1-5.65-9.51,15.22,15.22,0,0,1-1.37-5.14,4,4,0,0,1,1.76-3.8,6.94,6.94,0,0,1,1.33-.73l5.32-2.24-4.26,3.89a2,2,0,0,0-.61,1.78,12.91,12.91,0,0,0,1.18,4.45,70.64,70.64,0,0,0,5.51,9.26c.88,1.32,1.79,2.68,2.64,4.05.35.55.7,1.1,1.06,1.64Z" transform="translate(-8.72 -10.38)" style="fill:#162a42"/><path d="M66.72,128h0l.47.26Z" transform="translate(-8.72 -10.38)" style="fill:#f80"/><path d="M66.76,129.15l-.3-.16h-.74v-2H67l.23.13.43.23-.31.64h0Z" transform="translate(-8.72 -10.38)" style="fill:#162a42"/><path d="M66.72,128h0l-.15.14-.32-.16h0l0,0,.1,0h0a.35.35,0,0,1,.24,0Z" transform="translate(-8.72 -10.38)" style="fill:#f80"/><path d="M66.75,129.32l-2.31-1.1L66,126.9h.45a1.39,1.39,0,0,1,.71.2l.22.17.31.3v.84Z" transform="translate(-8.72 -10.38)" style="fill:#162a42"/><path d="M66.42,127.9a.35.35,0,0,1,.24,0A.35.35,0,0,0,66.42,127.9Z" transform="translate(-8.72 -10.38)" style="fill:#f80"/><path d="M66.48,128.91a1,1,0,0,1-.17-2h.17a1.36,1.36,0,0,1,.68.18l0,0a1,1,0,0,1,.38.79,1,1,0,0,1-.92,1Z" transform="translate(-8.72 -10.38)" style="fill:#162a42"/><path d="M66.41,127.9h0Z" transform="translate(-8.72 -10.38)" style="fill:#f80"/><polygon points="57.68 118.53 55.26 118.53 57.27 116.53 60.35 116.52 58.06 118.52 57.68 118.53" style="fill:#162a42"/><path d="M66.4,127.91l-.1,0Z" transform="translate(-8.72 -10.38)" style="fill:#f80"/><path d="M66.59,128.48l-.11-.22,0,.18h0l0-.18,0,.17-.68-1.37L66,127h0l.16,0h0l.21,1Z" transform="translate(-8.72 -10.38)" style="fill:#162a42"/><path d="M66.3,127.94l0,0Z" transform="translate(-8.72 -10.38)" style="fill:#f80"/><polygon points="57.95 118.49 57.72 117.93 56.9 116.81 57.02 116.71 57.22 116.63 57.86 117.95 58.16 118.37 57.91 118.06 58.09 118.42 57.73 117.94 57.95 118.49" style="fill:#162a42"/><path d="M66.15,127.91h.15l-.06.07h0Z" transform="translate(-8.72 -10.38)" style="fill:#f80"/><polygon points="57.51 118.6 57.15 118.6 56.79 118.3 55.07 116.71 60.22 116.33 58.51 118.01 58.51 118.59 57.51 118.6" style="fill:#162a42"/><polygon points="57.51 117.59 57.52 117.59 57.52 117.59 57.51 117.59" style="fill:#f80"/><polygon points="57.51 118.59 56.51 118.59 56.51 116.59 57.93 116.59 58.23 116.88 57.52 117.59 58.51 117.59 57.52 117.59 57.95 118.49 57.75 118.59 57.51 118.59" style="fill:#162a42"/><polygon points="57.52 117.59 57.51 117.59 57.51 117.59 57.52 117.59" style="fill:#f80"/><path d="M66.24,129v-1h-1v-1h1v1h0Zm0-1v0Z" transform="translate(-8.72 -10.38)" style="fill:#162a42"/><path d="M160.42,71.41s.05.06.07.09.08,0,.09-.08-.05-.06-.08-.09S160.42,71.38,160.42,71.41ZM66.24,128h0l.06-.07h-.15l.08.07h0Zm1.32-8c0-.13.09-.35-.19-.31h0v0l0,0h0a.25.25,0,0,0,0,.07.37.37,0,0,0,0,.21l.05.07s0,0,.06.06S67.56,120,67.56,120ZM177.82,74.52v0l0,0Zm0,0c0-.07,0-.14-.11-.12ZM81,88.36c1.68,5.76,1.28,11.1-3.26,15.58-3.64,3.59-11.09,6.24-16.73,1-.24-.23-.46-.64-.93-.35.16.21.32.41.45.62a9,9,0,0,0,7.65,4.35,19.49,19.49,0,0,0,7.61-1.58c2.67-1,3.95-.43,5.2,2.09a6.44,6.44,0,0,1,.59,1.64A14.81,14.81,0,0,1,77.15,126a12.56,12.56,0,0,1-3.22,2.3,8.51,8.51,0,0,1-.83.34c-.25.09-.51.17-.77.24a7.2,7.2,0,0,1-3.2.07l-.48-.12-.24-.08-.48-.16h0c-.24-.1-.49-.21-.73-.33l-.47-.26h0l-.06,0a.35.35,0,0,0-.24,0h0l-.1,0,0,0h0l.32.16a2.89,2.89,0,0,0,1.78,1.29,10.31,10.31,0,0,0,4.24.4c3.19-.09,3.91.45,4.68,3.49A15.52,15.52,0,0,0,81.34,141c.31.3.55.74,1.09.71,0-.09.06-.18,0-.24a2.39,2.39,0,0,0-.13-.21l-.13-.16,0,0-.28-.32-.26-.33h0l-.25-.33a15.2,15.2,0,0,1-2.21-4.84c-1-3.63-.86-7,1.56-10.17a16.19,16.19,0,0,0,2.19-4.33c1.69-4.59,2-9.1-.91-13.35a4.14,4.14,0,0,1-.27-4.73,14.84,14.84,0,0,0-.47-15c-.12-.21-.17-.6-.64-.39C80.77,87.68,80.9,88,81,88.36Zm36.67-31.94a15.47,15.47,0,0,1-9.13,1.32c-3.9-.48-7.55-1.62-10.23-4.6A13.85,13.85,0,0,1,95,39.8a7.74,7.74,0,0,1,3.09-4.3,16.51,16.51,0,0,1,2.06-.91,63.48,63.48,0,0,1,8.07-2c3.25-.73,6.29-1.93,8.43-4.64a3.92,3.92,0,0,0,.39-.52h0a.56.56,0,0,0,.13-.28,1.73,1.73,0,0,0,.06-.58,12.24,12.24,0,0,1-3.47,2.73c-.65.15-1.4.27-2.37.52a32.63,32.63,0,0,1-7.23,1.07,3.84,3.84,0,0,1-3.38-1.59,14.9,14.9,0,0,0-2.32-2.62c-1.1-.89-.82-1.61-.13-2.49a15.77,15.77,0,0,1,3.53-3.3l.68-.36a26.87,26.87,0,0,1,18.77-2.4c3.91.95,6,3,6.32,7.06.45,5.33-1.38,9.58-5.9,12.62a33.79,33.79,0,0,1-8.9,3.35,4.71,4.71,0,0,0-1.14.41,15.89,15.89,0,0,0,2-.09c-.77.23-1.57.44-2.36.63a4,4,0,0,0-1.14.41,20.39,20.39,0,0,0,6.75-1.22,25.49,25.49,0,0,0,6.56-3.08,16,16,0,0,0,6.25-5.95c2.26-3.86,2.87-8,.75-12.1a1.19,1.19,0,0,1-.17-1c4.42-1.53,10.11,1.88,10.59,6.55A10,10,0,0,1,138.52,33c-1,1.26-2,2.47-3,3.7l-.78,1c-2.3,2.91-3,6.11-1.51,9.57,2.75,6.36.33,13.69-5.25,18a1,1,0,0,0-.25.48c-1.25.89-2.13,1.45-2.1,1.49,1.89,2.89,1.74-.18,2.1-1.49.6-.43,1.26-.92,2-1.46.92-.5,4.46-2.81,6-5.53a20.35,20.35,0,0,0,2.08-6,3.35,3.35,0,0,1,.57-1.36,85,85,0,0,1,8.54-2.77c6.91-1.55,9.35,3.42,8.83,8.65-.25,2.59-1.92,4.47-3.66,6.24-.67.68-1.43,1.27-2.21,1.94a2.77,2.77,0,0,0,2.12-.86l.18-.13a4.67,4.67,0,0,0,1.36-.81,22.54,22.54,0,0,0,2.33-1.91,9.68,9.68,0,0,1,1-.8c3.51-1.7,6.89-.29,9.49,2,3.78,3.35,4.16,7.93,2.92,12.36-1.17,4.19-4.4,6.54-7.7,8.87a17.44,17.44,0,0,0-2.89,2.44l-.09,0a25.4,25.4,0,0,0-9.78-.67,19.22,19.22,0,0,0-8.5,3.21h0a21.25,21.25,0,0,0-7.67,7.53,14.55,14.55,0,0,0-2.21,5.27,7.08,7.08,0,0,1-2.6,4.64,15.3,15.3,0,0,1-3.35,1.09,38.55,38.55,0,0,1-6.26.68,9.32,9.32,0,0,0,2.43.65c-1.31.15-2.64.23-4,.3a11.58,11.58,0,0,0,5.28.72,33.7,33.7,0,0,0,5.72-1c1.84-.42,2.62-.13,3.61,1.39a16.43,16.43,0,0,0,8.39,6.89,2.36,2.36,0,0,1,1.53,2.7,9,9,0,0,1-4.25,7.27l-.92.63s0,.07,0,.11c.45.22.82,0,1.19-.21a13,13,0,0,0,1.88-1.12,10,10,0,0,0,5.08-5.64,6.64,6.64,0,0,1,1.88-3,8.1,8.1,0,0,1,1.72-.49,9.81,9.81,0,0,0,4.15-1.83h0a15.15,15.15,0,0,0,4.59-3.89c-.52-.33-.69.08-.93.24s-.59.4-.89.59c-.31-.05-.46.23-.65.36l-.28.19h0a14.5,14.5,0,0,1-12.27,1.45,11,11,0,0,1-7.44-9.86,16.17,16.17,0,0,1,7-14.51,15.92,15.92,0,0,1,4.82-1.69c2.94-.52,5.9-.6,8.53,1.24,1.07.75,1.87,1.52,1.52,3.06a5.4,5.4,0,0,0,.34,3.41A12.76,12.76,0,0,1,157.46,91a3.11,3.11,0,0,1-.08.93,5.4,5.4,0,0,0,.34,3.41,11.82,11.82,0,0,1,2.77-7.53,19.14,19.14,0,0,1,3.61-3l1.49-1c2.92-2,5.5-4.28,6.8-7.66,2.26-5.82.41-15.34-8.17-18-.28-.09-.55-.2-.84-.27A5.32,5.32,0,0,1,159,53.5a16.5,16.5,0,0,0-1.41-3.85c-1.91-3.6-5.38-4.53-9-4a23.16,23.16,0,0,0-5.08,1.5l-.43.17a9.57,9.57,0,0,1-3.14.56,4,4,0,0,1-4.19-3.09c-.89-3,.3-5.47,2.16-7.69.55-.66,1.13-1.3,1.72-1.94,1-1,2-2.09,2.92-3.16a8.08,8.08,0,0,0,2.15-7.14,2,2,0,0,1,.48-1.92,10.8,10.8,0,0,1,14.22,11.75,27.43,27.43,0,0,0-.38,7.07c.52,6.19,5.07,8.49,10.22,7.88a9.33,9.33,0,0,0,4.62-1.82A7.9,7.9,0,0,0,176.35,46c-1.29.43-2.41.87-3.57,1.16-3.21.8-6.14.36-8.49-2.11a8.19,8.19,0,0,1-1.9-5.05,32.3,32.3,0,0,1,.26-6.21,25,25,0,0,0,0-2.74,3.19,3.19,0,0,1,.15-1.21l.19,0a7,7,0,0,1,7.22,3.54,11.54,11.54,0,0,1,1.5,5c0,.87.37,1,1.14,1a11.91,11.91,0,0,1,1.2,0c8.66.58,12.61,10.78,9.86,16.75-1.06,2.29-5.57,3-9,3.3-2.3.15-4.13.09-4.13.09s5.08,2.94,7.44,2.67c3.28-.37,5.94-1.74,7.48-4.65a4.3,4.3,0,0,0,1.65-1.25,5.45,5.45,0,0,1,.62.35,11,11,0,0,1,5,7.86,14.77,14.77,0,0,1,.06,5.7c-.2.85.57,1-.21,1.87-.59-.08-1.24-.15-2-.28A7.8,7.8,0,0,0,185.7,70c-.33-.18-.68-.36-1-.57s-.53.22-.81,0c.21.21.42.44.63.66a12.36,12.36,0,0,0-1.27.25,3.37,3.37,0,0,0-.9,0c.28.22.55.07.81,0l.09,0a7.72,7.72,0,0,1,2.4.83c1.9,1.69,4.21,3,6.69,2,0,0,0,0,0,0a12,12,0,0,1,2.5,11.66,4.55,4.55,0,0,1-.57,1.29A3.53,3.53,0,0,1,192,85.2c-2.23-1.72-4.91-2.16-7.54-2.66a4.85,4.85,0,0,1-4.12-3.65,9.6,9.6,0,0,0-2.43-4.26,31.88,31.88,0,0,1,1.47,6.56,6,6,0,0,1-.58-1.35,9.5,9.5,0,0,0-2.44-4.27,24.8,24.8,0,0,1,1.51,9.31c-.47,6.47-2.91,11.74-8.3,15.37,0,0,0,0,0,0a24.74,24.74,0,0,1-21.07,1.88,1.52,1.52,0,0,0-1.22-.1,25.93,25.93,0,0,0,6.73,2.51,27.36,27.36,0,0,1-7.05-1.46,1.46,1.46,0,0,0-1.21-.1,23.49,23.49,0,0,0,12.39,3,24.59,24.59,0,0,0,12.57-4.28c.54-.31,1.08-.64,1.6-1a2.5,2.5,0,0,1,2.38,0c1.55.79,1.9,2.32,1.84,3.84-.28,6.55-2.94,12.16-8,15.62a21.32,21.32,0,0,1-6.27,2.23,22.94,22.94,0,0,1-12.54-1,5.49,5.49,0,0,0,2.8,1.53c1.08.36,2.2.6,3.29.89h0a23.89,23.89,0,0,1-7.66-1.48,5.52,5.52,0,0,0,2.8,1.53c1.08.36,2.2.6,3.29.89,1.38.37,1.54.66,1.17,2a10,10,0,0,1-4,5.62c-.34.25-.68.48-1,.71a21.35,21.35,0,0,1-15.69,2.53,10.11,10.11,0,0,1-5.12-17.13,3.82,3.82,0,0,0,1.12-1.34,6.71,6.71,0,0,0-1.87,1.09,8.47,8.47,0,0,0-3.34,2.91,15.82,15.82,0,0,0-2.6,6.67,4.2,4.2,0,0,1-1.07,2.17,4.58,4.58,0,0,1-.56.17c-6.07,1.48-12.12,1.88-17.91-1-5.07-2.54-8.41-6.33-8.36-12.3a.73.73,0,0,0,0-.25,2,2,0,0,0-.17-.29,10.32,10.32,0,0,0,1.85,8.9c.44.61.93,1.18,1.38,1.78a4.34,4.34,0,0,1,.64,1.18,12.19,12.19,0,0,1-5.2-10.37,1.07,1.07,0,0,0,0-.25,2.63,2.63,0,0,0-.18-.29,10.33,10.33,0,0,0,1.85,8.9c.44.61.93,1.18,1.38,1.78a2.67,2.67,0,0,1,0,3.74A10.87,10.87,0,0,1,94.21,134a13.44,13.44,0,0,1-4.54,1.31,8,8,0,0,0-1.11.18,11.79,11.79,0,0,0,2.18.23,14.55,14.55,0,0,1-2.61.54,8,8,0,0,0-1.11.18,12.43,12.43,0,0,0,9.38-2.06L97,134c.33-.19.66-.38,1-.59l.77-.5a2.64,2.64,0,0,1,.38-.18,5.67,5.67,0,0,1,4.07-.22c1.25.39,2.49.79,3.7,1.26a2.82,2.82,0,0,1,1.79,2.38,34.71,34.71,0,0,0,.76,4.29,8,8,0,0,0,3.33,4.51c-6.81.31-13.62.56-20.42.7a61.44,61.44,0,0,1-15.43-1.39,98.28,98.28,0,0,1-10.28-3.29c-.37-.55-.72-1.11-1.07-1.66l-.18-.27,2.78,1c-.36-.55-.72-1.1-1.07-1.66-2.77-4.45-6-8.64-8.2-13.42a13.85,13.85,0,0,1-1.28-4.79,3,3,0,0,1,.93-2.59,5.12,5.12,0,0,1,6.46,2c.24.36.37.81.83,1a6,6,0,0,0-1.78-4,5.63,5.63,0,0,1,2.49,2.1c.24.36.37.81.83,1a5.88,5.88,0,0,0-3.92-5.36,16.19,16.19,0,0,0-4.35-.79,10,10,0,0,1-8.75-5.68c-1.66-3.07-2.51-6.37-1.2-9.82a8.61,8.61,0,0,1,2.74-3.81h0a9.84,9.84,0,0,1,4.49-.92,15.72,15.72,0,0,1,10,3.88l.38.31s.08,0,.29.06c-.15-.75-.27-1.51-.36-2.26.42.29.83.61,1.23.94l.38.32a2.09,2.09,0,0,0,.29,0,41.65,41.65,0,0,1-.7-6.72,18.3,18.3,0,0,1,2.81-11,11,11,0,0,1,2.71-2.88,13.9,13.9,0,0,1,5.33-1.4c2.72-.2,5.39-.12,7.82,1.39,2.72,1.7,3.83,4.3,4.33,7.27s0,6.22-.12,9.33c-.07,3.66.35,7.24,2.5,10.36s5.36,4.33,9,4.75c3.25.37,3.26.3,4.13,3.59q2.08,7.95,10.27,9.56a22.22,22.22,0,0,1-4.69-3.31,11.93,11.93,0,0,1-1.94-2.56,12.47,12.47,0,0,0,8.16,4.92,22.42,22.42,0,0,1-4.68-3.31,12.21,12.21,0,0,1-3.53-8.67,2.48,2.48,0,0,1,.69-1.92c.54-.3,1.07-.62,1.56-1a19.24,19.24,0,0,0,8.69-10.39,24.19,24.19,0,0,0,1.72-7,2,2,0,0,1,.23-.8l.18,0c1.57-.28,3.17-.42,4.75-.69a16.88,16.88,0,0,0,6.92-2.77,14.13,14.13,0,0,0,2.92-2.05,5.24,5.24,0,0,1,3.28.14,15.29,15.29,0,0,0,12.9-2.28,14.67,14.67,0,0,0,6.35-6.59c.1-.22.29-.42.08-.8a20,20,0,0,1-1.76,2c0-.1.1-.19.14-.28s.29-.42.09-.8A20.55,20.55,0,0,1,154,77.12l-.29.2a14.09,14.09,0,0,1-10.34,2.33,11.29,11.29,0,0,1-1.15-.27,19.53,19.53,0,0,1-5.52-3c-1.1-.77-1.72-1.18-1.63-.45.37,3.07-.4,5.3-2.42,6.87-.29.14-.6.28-.92.41a12.32,12.32,0,0,1-5.21.81c-.92-.05-3.34-1.55-5.56-3-.56-5-4.29-3-4.29-3s2,1.52,4.29,3h0a34.45,34.45,0,0,1,.23,3.91h0c-2.76-4-8.39-6.67-7.23-1.8.32,1.34,4.11,1.69,7.23,1.8a0,0,0,0,0,0,0,23.64,23.64,0,0,1-1.66,9.15c-1.11,1.45-2.38,3-3.48,4.6a14.49,14.49,0,0,1-3.83,3.93,14.17,14.17,0,0,1-10.12,1.32c-4.8-1.21-6.91-4.7-7.84-9.12a23.3,23.3,0,0,1-.37-6.19c.17-3.14.41-6.3-.67-9.37a8.72,8.72,0,0,0-6.1-5.81,2.06,2.06,0,0,1-.6-.16,11.71,11.71,0,0,0,2-.88c.39-.24.78-.48,1.14-.73l.4-.22a20.13,20.13,0,0,0,7.67-8.71c.54-1.08,1-2.19,1.53-3.27A4.27,4.27,0,0,1,100,58.3a1.79,1.79,0,0,1,1.38.21,2,2,0,0,1,.81,2.42,26.26,26.26,0,0,1-1.06,3.58c-1.64,4.29-1,8.47.49,12.64.81,2.22,1.87,4.35,2.52,6.63a12.14,12.14,0,0,1-.62,9.09l-.35.4c0,.11-.1.27-.06.3s.19,0,.23-.13l.4-.36c2.29-2.48,2.44-5.44,2-8.53a30.88,30.88,0,0,0-2.22-6.86c-1.22-3-2.14-6.12-1.79-9.43a20.5,20.5,0,0,0,1.45,7.94c.8,2.22,1.87,4.35,2.52,6.63a12.19,12.19,0,0,1-.62,9.09l-.36.41c0,.1-.09.27,0,.29s.19,0,.23-.13l.4-.36c2.29-2.47,2.44-5.44,2-8.53a30.88,30.88,0,0,0-2.22-6.86c-1.29-3.19-2.23-6.43-1.73-9.93a8.68,8.68,0,0,1,3.35-5.65,8.85,8.85,0,0,1,2-.69c2-.46,4-.88,6-1.39a11,11,0,0,0,4-1.85,10.94,10.94,0,0,0,5.38-6.36,14.93,14.93,0,0,0,.93-5.64c-.52.4-.39,1-.5,1.5a17,17,0,0,1-1.94,5,14.76,14.76,0,0,0,.9-5.56c-.52.39-.38,1-.5,1.5A14.4,14.4,0,0,1,117.67,56.42Z" transform="translate(-8.72 -10.38)" style="fill:#f80"/><path d="M90.42,146.64a59,59,0,0,1-13.76-1.44,97.79,97.79,0,0,1-10-3.19l-.66-.24-.19-.28q-.55-.84-1.08-1.68l-1.77-2.7,2.77.95,0,0c-.69-1.09-1.41-2.17-2.11-3.22A72.3,72.3,0,0,1,58,125.33a14.78,14.78,0,0,1-1.37-5.13,4,4,0,0,1,1.26-3.41l.13-.12.15-.06a6.11,6.11,0,0,1,4.34-.23l-1.81-1.77c-.53-.08-1.07-.13-1.62-.16a11,11,0,0,1-9.59-6.2c-2.09-3.87-2.5-7.35-1.25-10.65a9.68,9.68,0,0,1,2.67-3.93v-.53h.78a11,11,0,0,1,4.55-.92h.19a16.29,16.29,0,0,1,9.33,3.1l-.28-2.21,1.82,1.26c-.18-1.39-.29-2.88-.34-4.54a19.21,19.21,0,0,1,3-11.61,12.47,12.47,0,0,1,3-3.14L73,75a14.83,14.83,0,0,1,5.71-1.5c.77-.06,1.43-.09,2-.09A11.61,11.61,0,0,1,87.11,75a10.89,10.89,0,0,1,4.79,8,27,27,0,0,1,.06,6.6c-.07,1-.14,2-.16,2.91,0,2.9.16,6.63,2.33,9.78,1.71,2.49,4.33,3.87,8.24,4.31l.2,0c3.48.39,3.84.71,4.78,4.31a13,13,0,0,0,2,4.33l1.36-.87a13.61,13.61,0,0,1-1.69-6.55,3.47,3.47,0,0,1,1-2.66l.22-.16c.53-.3,1-.6,1.47-.91l.09,0a17.46,17.46,0,0,0,7.33-7.82c-.75,1-1.52,1.93-2.2,3a15.83,15.83,0,0,1-4.09,4.19l-.1.07a15.39,15.39,0,0,1-10.84,1.4c-4.61-1.16-7.42-4.39-8.58-9.88a24.41,24.41,0,0,1-.39-6.45l0-.48c.16-3,.31-5.78-.65-8.51a7.74,7.74,0,0,0-5.43-5.18A2.21,2.21,0,0,1,86,74.1L84.18,73l2-.69a9.62,9.62,0,0,0,1.8-.8c.38-.22.73-.44,1.08-.68l.11-.07.36-.2c3-1.73,5.28-4.37,7.27-8.3.31-.59.59-1.2.87-1.81s.43-1,.66-1.43a5.15,5.15,0,0,1,1-1.42l.19-.18.25-.07a2.74,2.74,0,0,1,2.15.31,2.92,2.92,0,0,1,1.27,3.51,27.9,27.9,0,0,1-1.09,3.71,13.67,13.67,0,0,0-.82,3.32l.93.07a14.65,14.65,0,0,1,.14-1.59,9.69,9.69,0,0,1,3.73-6.31l.17-.1a10.72,10.72,0,0,1,2.19-.77l1.85-.41.78-.18h0a22.2,22.2,0,0,1-2.65-.17c-3.1-.38-7.59-1.31-10.85-4.92A14.81,14.81,0,0,1,94,39.54a8.71,8.71,0,0,1,3.47-4.85l.12-.07a18.67,18.67,0,0,1,2.18-1A48.13,48.13,0,0,1,106.17,32c.6-.13,1.21-.25,1.81-.39.38-.08.74-.17,1.09-.27a32.62,32.62,0,0,1-4.9.54H104a4.78,4.78,0,0,1-4-2,14,14,0,0,0-2.15-2.44,2.48,2.48,0,0,1-.28-3.89A16.89,16.89,0,0,1,101.27,20l.09-.05c.23-.13.47-.25.71-.37a27.92,27.92,0,0,1,19.46-2.48c4.47,1.09,6.72,3.62,7.08,8a14.15,14.15,0,0,1-2.7,10.18,14.2,14.2,0,0,0,2.92-3.52c2.3-3.94,2.54-7.59.72-11.15a2.2,2.2,0,0,1-.2-1.86l.18-.41.42-.14a7.88,7.88,0,0,1,2.58-.42c4.62,0,8.89,3.58,9.33,7.81a10.94,10.94,0,0,1-2.54,8c-.7.91-1.43,1.79-2.16,2.68l-.85,1-.78,1c-2.2,2.8-2.65,5.59-1.37,8.56a15.45,15.45,0,0,1-.4,12.86,9.32,9.32,0,0,0,1-1.46,19.29,19.29,0,0,0,2-5.69,4.36,4.36,0,0,1,.75-1.76l.18-.25.3-.1c.82-.27,1.63-.57,2.45-.86a52.57,52.57,0,0,1,6.2-1.94c3.39-.76,6.19-.08,8,1.9,1.65,1.81,2.38,4.59,2.06,7.83a8.27,8.27,0,0,1-1,3.14l.47-.38.17-.1c3.38-1.63,7.19-.84,10.58,2.17,3.65,3.24,4.77,7.86,3.22,13.38-1.29,4.62-4.9,7.17-8.08,9.42a15.65,15.65,0,0,0-2.72,2.29l-.4.44-.69-.16-.1,0,.15,1.7a11.93,11.93,0,0,1,1.44-2.06,19.63,19.63,0,0,1,3.8-3.21c.38-.27.78-.53,1.17-.8l.32-.22c2.45-1.67,5.13-3.82,6.43-7.19a14.07,14.07,0,0,0-.53-10.68,11.3,11.3,0,0,0-7-6l-.32-.11a3.52,3.52,0,0,0-.43-.13,6.3,6.3,0,0,1-5.1-5,16.14,16.14,0,0,0-1.32-3.63,6.55,6.55,0,0,0-6.22-3.59,11.89,11.89,0,0,0-1.75.14,21.49,21.49,0,0,0-4.86,1.44l-.47.18a10.67,10.67,0,0,1-3.47.62,5,5,0,0,1-5.16-3.81c-1.14-3.85.8-6.76,2.36-8.62.56-.67,1.15-1.32,1.74-2l1-1.09c.64-.68,1.28-1.37,1.9-2.07a7,7,0,0,0,1.91-6.28,3,3,0,0,1,.75-2.8l.14-.15.18-.08a10.66,10.66,0,0,1,6.51-.39c6.52,1.28,10.25,6.72,9.09,13.24a25.74,25.74,0,0,0-.38,6.81c.38,4.48,3.18,7.06,7.67,7.06a11.84,11.84,0,0,0,1.44-.09c.25,0,.49-.07.74-.12a8.6,8.6,0,0,1-6.33-2.79,9.07,9.07,0,0,1-2.17-5.62,25.11,25.11,0,0,1,.14-5.07c.05-.44.09-.88.13-1.33a22.29,22.29,0,0,0,0-2.32v-.31a4.31,4.31,0,0,1,.22-1.61l.2-.52.77-.13a7.64,7.64,0,0,1,1.26-.1,7.87,7.87,0,0,1,7,4.14,12.57,12.57,0,0,1,1.62,5.4v0h.11c.44,0,.88,0,1.3,0a11.91,11.91,0,0,1,9.59,6.11c2.28,3.83,2.71,8.57,1.11,12-1,2.19-4.32,3.49-9.86,3.88h0a7.8,7.8,0,0,0,3.18.76c3.24-.36,5.43-1.71,6.7-4.12l.16-.29.3-.14a3.18,3.18,0,0,0,1.26-.93L187,55l.75.33a6.29,6.29,0,0,1,.75.43A12,12,0,0,1,194,64.3a15.67,15.67,0,0,1,0,6.08c0,.06,0,.06,0,.23a1.87,1.87,0,0,1-.47,2.08l-.19.22a12.87,12.87,0,0,1,2.37,12.19,5.22,5.22,0,0,1-.71,1.58l-.28.4-.66,0A4.61,4.61,0,0,1,191.36,86c-1.92-1.48-4.25-1.92-6.71-2.39l-.4-.08a6,6,0,0,1-3.89-2.27l.39,4.27-1.92-3.25a17.11,17.11,0,0,1,0,2.68c-.48,6.45-2.79,11.33-7,14.86h0a3.48,3.48,0,0,1,3.27,0c1.15.59,2.5,1.9,2.38,4.78-.3,7-3.28,12.87-8.41,16.39a22.48,22.48,0,0,1-6.64,2.39,23.41,23.41,0,0,1-4.14.45l2.25,1.06-4.23-.1a2.75,2.75,0,0,1,.07,2.23,10.94,10.94,0,0,1-4.35,6.18c-.35.26-.71.5-1.06.74a22.43,22.43,0,0,1-16.46,2.67,11.15,11.15,0,0,1-8.43-7.63,10.94,10.94,0,0,1,.33-7.34l-.09.12A15,15,0,0,0,123.9,128a5.25,5.25,0,0,1-1.34,2.67l-.15.16-.21.08a4.73,4.73,0,0,1-.67.2,36.43,36.43,0,0,1-8.66,1.17,21.7,21.7,0,0,1-9.93-2.26,21.12,21.12,0,0,1-3.24-2l.91,2.79L98.16,129a3.73,3.73,0,0,1-.86,3.26l-.57.71.68-.41.73-.49.11-.07.45-.21a6.85,6.85,0,0,1,4.76-.25c1.13.35,2.46.78,3.77,1.29a3.8,3.8,0,0,1,2.41,3.17l.14.93a23.38,23.38,0,0,0,.59,3.23,7,7,0,0,0,2.92,4l2.57,1.69-3.08.14c-7.85.35-14.34.57-20.44.7Zm-20.34-5.52c2.32.81,4.68,1.57,7,2.14a57.89,57.89,0,0,0,13.3,1.38l1.88,0c5.43-.11,11.18-.3,17.93-.59a8.85,8.85,0,0,1-1.79-3.35,27.7,27.7,0,0,1-.65-3.49l-.13-.92a1.78,1.78,0,0,0-1.16-1.59c-1.25-.49-2.54-.91-3.64-1.25a4.81,4.81,0,0,0-3.38.18l-.27.13-.72.48c-.36.22-.7.43-1,.62-.09.07-.27.19-.45.3a13.34,13.34,0,0,1-10.17,2.23l-4.1-.83,2.64-.73-1.08-.22,4-1.12a7.46,7.46,0,0,1,1-.18l.21,0a12.31,12.31,0,0,0,4.13-1.18,10.24,10.24,0,0,0,2-2,1.72,1.72,0,0,0,0-2.56q-.3-.41-.63-.81c-.25-.32-.51-.64-.75-1a11.24,11.24,0,0,1-2-9.72l.59-2.36.92,1.54,0-.13.58-2.36,1.33,2.22a1.33,1.33,0,0,1,.18.36,1.82,1.82,0,0,1,.09.56c0,5,2.51,8.76,7.81,11.4a19.76,19.76,0,0,0,9,2,34.47,34.47,0,0,0,8.18-1.11l.23-.06a3.45,3.45,0,0,0,.66-1.51,16.93,16.93,0,0,1,2.78-7.07,9.42,9.42,0,0,1,3.62-3.17,7.47,7.47,0,0,1,2-1.16l2.15-.82-.86,2.13a3.75,3.75,0,0,1-1.08,1.43l-.25.23a9.34,9.34,0,0,0-2.34,9.2,9.16,9.16,0,0,0,7,6.25,20.37,20.37,0,0,0,15-2.42c.28-.18.61-.41.94-.65a9,9,0,0,0,3.59-5.07,4.23,4.23,0,0,0,.13-.63,4.88,4.88,0,0,0-.6-.19l-1-.27c-.76-.19-1.54-.38-2.3-.64l-.29-.09a6.12,6.12,0,0,1-2.95-1.72l-2.08-2.33a7.71,7.71,0,0,0-.3.77,10.93,10.93,0,0,1-5.5,6.17,15.61,15.61,0,0,1-2,1.17l-.11.05a2.49,2.49,0,0,1-1.17.35,1.84,1.84,0,0,1-.79-.19l-.69-.32.14-.76a1,1,0,0,1,.43-.75l.91-.62a8,8,0,0,0,3.84-6.51c.07-1.15-.28-1.51-.87-1.71a17.23,17.23,0,0,1-8.89-7.29c-.67-1-1-1.1-1.49-1.1a5.1,5.1,0,0,0-1.06.15l-.26.06a33.42,33.42,0,0,1-5.63.94q-.57,0-1.14,0a11.4,11.4,0,0,1-4.59-.83l-4-1.7,3.35-.17-1.8-.78,4.29-.22a39.43,39.43,0,0,0,6.09-.65,14,14,0,0,0,3-1,6.09,6.09,0,0,0,2.15-3.94,15.32,15.32,0,0,1,2.35-5.64,22.44,22.44,0,0,1,7.8-7.74l.16-.26h.26a20.34,20.34,0,0,1,8.67-3.2,26.39,26.39,0,0,1,9.69.57,20,20,0,0,1,2.63-2.14C164,81.19,167.12,79,168.22,75c.92-3.3,1.21-7.94-2.63-11.35a8.94,8.94,0,0,0-5.65-2.5,6.14,6.14,0,0,0-2.65.61,9.79,9.79,0,0,0-.8.67,24.74,24.74,0,0,1-2.43,2l-.25.18a4.57,4.57,0,0,1-1.22.72l-.08.06-.24.17a3.33,3.33,0,0,1-2.61.85l-2.1-.34,1.6-1.4c.25-.22.5-.42.75-.63.5-.42,1-.83,1.4-1.26,1.66-1.68,3.16-3.38,3.39-5.64a8.21,8.21,0,0,0-1.55-6.29c-1.31-1.45-3.39-1.89-6.07-1.29a51.35,51.35,0,0,0-6,1.87c-.71.26-1.43.52-2.15.76a3.06,3.06,0,0,0-.24.74,21.93,21.93,0,0,1-2.18,6.26c-1.6,2.84-5.09,5.2-6.31,5.88-.56.44-1.1.84-1.6,1.21,0,.17-.06.36-.09.55-.17,1.07-.4,2.55-1.69,2.55-.86,0-1.5-.8-2.06-1.65s.16-1.33,1-1.87l1.15-.8a1.56,1.56,0,0,1,.46-.64c5.4-4.17,7.43-11.09,4.95-16.82C130.75,44,131.3,40.4,134,37l.8-1,.86-1.05c.71-.87,1.43-1.74,2.11-2.63a8.9,8.9,0,0,0,2.14-6.57c-.33-3.21-3.76-6-7.34-6a5.8,5.8,0,0,0-1.11.1c2,4.1,1.74,8.44-.87,12.89a16.93,16.93,0,0,1-6.63,6.32,26.08,26.08,0,0,1-6.73,3.15,21.91,21.91,0,0,1-6.81,1.27l-3.89-.06,1.64-.94H108l3.16-1.8a5.13,5.13,0,0,1,1.4-.52,32.49,32.49,0,0,0,8.65-3.25c4-2.72,5.83-6.55,5.4-11.66-.29-3.5-1.91-5.29-5.56-6.18A25.92,25.92,0,0,0,103,21.4l-.6.31a15.09,15.09,0,0,0-3.26,3.06c-.54.69-.5.72,0,1.1a14.91,14.91,0,0,1,2.43,2.73A2.89,2.89,0,0,0,104,29.86h.13a31.9,31.9,0,0,0,7-1c.62-.15,1.15-.26,1.62-.36l.65-.13a11.48,11.48,0,0,0,3.07-2.45l1.6-1.82.14,2.42a2.44,2.44,0,0,1-.07.82,1.82,1.82,0,0,1-.11.38v.19l-.22.19a4.4,4.4,0,0,1-.31.41l-.07.09c-2.53,3.2-6.13,4.34-9,5l-1.84.4a43.73,43.73,0,0,0-6.1,1.59,16,16,0,0,0-1.88.82,6.64,6.64,0,0,0-2.66,3.71,12.89,12.89,0,0,0,3.11,12.41c2.16,2.4,5.13,3.72,9.61,4.28a14.6,14.6,0,0,0,8.48-1.19A13.3,13.3,0,0,0,122,47.45a2.58,2.58,0,0,0,0-.29,2.27,2.27,0,0,1,.84-1.78l1.53-1.16v.21l1.53-1.16L126,45.2a15.91,15.91,0,0,1-1,6,11.93,11.93,0,0,1-5.79,6.88,12.16,12.16,0,0,1-4.28,2c-1.4.35-2.81.67-4.22,1l-1.84.41a8.34,8.34,0,0,0-1.66.57A7.63,7.63,0,0,0,104.32,67c-.49,3.42.57,6.68,1.67,9.41l.23.56a29.32,29.32,0,0,1,2,6.52c.41,2.78.53,6.36-2.24,9.36l-.32.29a1.1,1.1,0,0,1-.95.56h-.17a.94.94,0,0,1-.1.1l-.32.29a1.1,1.1,0,0,1-1,.56h-.32l-.36-.23a1.1,1.1,0,0,1-.34-1.28l0-.26.45-.53a11.18,11.18,0,0,0,.5-8.26,36.79,36.79,0,0,0-1.49-4c-.35-.85-.7-1.7-1-2.56-1.86-5.09-2-9.33-.48-13.33a26,26,0,0,0,1-3.45c.24-1-.12-1.21-.33-1.33a.86.86,0,0,0-.38-.13,4.35,4.35,0,0,0-.38.63c-.22.46-.43.93-.65,1.39-.29.63-.58,1.27-.89,1.89-2.18,4.28-4.74,7.18-8.06,9.12l-.38.21c-.32.23-.65.44-1,.64a9.69,9.69,0,0,1,5,5.76c1.09,3.1.92,6.24.75,9.28l0,.47a22.32,22.32,0,0,0,.34,5.94c1,4.72,3.27,7.38,7.12,8.35a13.3,13.3,0,0,0,9.35-1.2,13.66,13.66,0,0,0,3.52-3.63c.81-1.21,1.69-2.32,2.54-3.4l.89-1.15a22.27,22.27,0,0,0,1.53-7.71c-4.73-.24-6.84-1-7.2-2.53a3.45,3.45,0,0,1,.33-3.06,2.13,2.13,0,0,1,1.76-.79c1.41,0,3.33,1.05,5,2.61,0-.18,0-.36,0-.53-2.09-1.43-3.92-2.8-3.94-2.81l-1.28-1L116.2,77a4.67,4.67,0,0,1,2-.49c.93,0,3.09.39,3.66,3.84,3.65,2.43,4.54,2.61,4.68,2.62a11.26,11.26,0,0,0,4.78-.74l.76-.33c1.67-1.34,2.29-3.21,2-5.89a1.35,1.35,0,0,1,.29-1.12,1.15,1.15,0,0,1,.88-.39c.56,0,1.11.37,2,1l.18.13a18.19,18.19,0,0,0,5.05,2.73,8.62,8.62,0,0,0,1,.24,13.07,13.07,0,0,0,9.63-2.17l.25-.18A19.19,19.19,0,0,0,157.92,72l.94-1.22.33.61.23-.28v-.24l.41-.31.57-.73.09.17.15-.13.88,1,.06.56-.06.5-.18.13a1.86,1.86,0,0,1-.24.73,15.78,15.78,0,0,1-6.75,7.07,16.47,16.47,0,0,1-13.71,2.39,4.42,4.42,0,0,0-2.49-.21,15.69,15.69,0,0,1-2.9,2A18,18,0,0,1,128,87c-.81.14-1.63.25-2.45.36-.63.08-1.25.16-1.88.26a24.84,24.84,0,0,1-1.79,7.27,20.1,20.1,0,0,1-9.1,10.89c-.44.3-.93.61-1.45.9a1.48,1.48,0,0,0-.32,1.1,11.2,11.2,0,0,0,3.24,8,19.11,19.11,0,0,0,4.06,2.9l5.39,3.22L119,121l3.15,1.88-5.68-1.13c-5.84-1.15-9.56-4.61-11-10.28a6.94,6.94,0,0,0-.84-2.38,5.85,5.85,0,0,0-2.24-.46l-.2,0c-4.46-.51-7.62-2.2-9.66-5.17-2.49-3.62-2.74-7.75-2.68-11,0-1,.1-2,.17-3a25.61,25.61,0,0,0,0-6.13c-.54-3.23-1.74-5.26-3.87-6.59a9.58,9.58,0,0,0-5.33-1.32c-.56,0-1.18,0-1.89.08A13.12,13.12,0,0,0,74,76.74a10.41,10.41,0,0,0-2.4,2.58,17.23,17.23,0,0,0-2.64,10.44,40.52,40.52,0,0,0,.68,6.57l.29,1.46-1.61-.31a.86.86,0,0,1-.18,0l.25,1.3-1.6-.31a1.15,1.15,0,0,1-.62-.26l-.29-.24-.08-.07a14.58,14.58,0,0,0-9.4-3.64H56.2a9,9,0,0,0-3.79.77,7.61,7.61,0,0,0-2.34,3.31c-1,2.77-.69,5.62,1.14,9a9,9,0,0,0,7.92,5.15,17.41,17.41,0,0,1,4.61.84A6.86,6.86,0,0,1,68,117.6l2.92-2.87-2.38,4.79a1.25,1.25,0,0,1,0,.37l0,.38-.24.29v.56l-.3-.12-.29.48-1-.69,0,1.28-1.42-.59a2.36,2.36,0,0,1-1.14-1.15,2.53,2.53,0,0,0-.13-.22,4.15,4.15,0,0,0-5.07-1.73,2,2,0,0,0-.49,1.66,12.91,12.91,0,0,0,1.18,4.45,70.64,70.64,0,0,0,5.51,9.26c.88,1.32,1.79,2.68,2.64,4.05.35.55.7,1.1,1.06,1.64Zm58.79-33.27a3.62,3.62,0,0,1,3.17,2,15.35,15.35,0,0,0,7.88,6.48c1.08.38,2.33,1.33,2.2,3.71a10.4,10.4,0,0,1-.92,3.78,8.26,8.26,0,0,0,1.93-3.12,7.57,7.57,0,0,1,2.16-3.44l.12-.11.15-.06a9.34,9.34,0,0,1,1.94-.56,9.08,9.08,0,0,0,1.76-.51,14.86,14.86,0,0,1-8.18-.45A11.9,11.9,0,0,1,133,104.85a17.19,17.19,0,0,1,3.35-11.45,23.56,23.56,0,0,0-2.93,3.78,13.62,13.62,0,0,0-2.07,4.91,8,8,0,0,1-3,5.25l-.19.11a15.4,15.4,0,0,1-3.25,1.11H125c.7-.14,1.4-.3,2.11-.46l.27-.06A6.6,6.6,0,0,1,128.87,107.85ZM146.34,119l3.69,1.32a21.89,21.89,0,0,0,12,1,20.39,20.39,0,0,0,6-2.13c4.51-3.1,7.19-8.37,7.46-14.78.09-2-.7-2.61-1.29-2.91a1.48,1.48,0,0,0-1.44,0q-.78.53-1.59,1a25.35,25.35,0,0,1-13,4.41,24.58,24.58,0,0,1-12.91-3.09l-1.9-1,1.89-.76-.35-.19,2-.8a2.62,2.62,0,0,1,1.81,0l.11,0A23.81,23.81,0,0,0,169,99.41c4.79-3.23,7.36-8,7.85-14.61a24.38,24.38,0,0,0-1.47-8.93l-1.13-3.61a14.79,14.79,0,0,1-.92,4.21c-1.51,3.89-4.63,6.38-7.17,8.12l-.33.22-1.16.79a17.91,17.91,0,0,0-3.42,2.87,10.79,10.79,0,0,0-2.53,6.92l-.17,4.19-1.38-3-.16,4-1.74-3.8a6.39,6.39,0,0,1-.4-4c.19-.85,0-1.27-1.12-2A8,8,0,0,0,149,89.27a17.06,17.06,0,0,0-3,.3,14.9,14.9,0,0,0-4.47,1.57A15.18,15.18,0,0,0,135,104.72a9.92,9.92,0,0,0,6.76,9,13.43,13.43,0,0,0,11.41-1.34l.28-.2a1.7,1.7,0,0,1,.87-.5c.22-.13.43-.27.64-.42a1.58,1.58,0,0,1,1.15-.54,1.67,1.67,0,0,1,.88.27l1,.61-.74.88a15.93,15.93,0,0,1-4.77,4.07l-.18.18h-.09a10.74,10.74,0,0,1-4.3,1.81,7.83,7.83,0,0,0-1.37.37Zm-.85,1.19,2.8,1-2-2.19A5,5,0,0,0,145.49,120.23ZM154,104.78a21,21,0,0,0,4.05.19,22.34,22.34,0,0,0,9.31-2.51,25.09,25.09,0,0,1-13.32,2Zm-5-17.51A10,10,0,0,1,154.9,89a5,5,0,0,1,1.62,1.63l0-.08,1.54-3a24.36,24.36,0,0,0-9.25-.61,19.56,19.56,0,0,0-3.2.7A18.7,18.7,0,0,1,149,87.27Zm-26.83-1.39V86l.07-.12.64-.12c.8-.14,1.59-.24,2.39-.34s1.58-.21,2.36-.35l.14,0c-.42,0-.86,0-1.3,0s-1.58-.33-4.34-2.08c0,.59,0,1.17.06,1.73h0v1.21Zm56.7-11.68a10.65,10.65,0,0,1,2.39,4.39,3.86,3.86,0,0,0,3.36,3l.4.07c2.59.5,5.26,1,7.56,2.78a3.83,3.83,0,0,0,1.11.62,4.44,4.44,0,0,0,.17-.48A11,11,0,0,0,192,74.31c-2.19.61-4.46-.14-6.92-2.29a7.37,7.37,0,0,0-1.77-.65,1.85,1.85,0,0,1-1.58-.2L180,69.84l2.12-.44a4.31,4.31,0,0,1,1-.06l.87-.18.47-.51a.71.71,0,0,0-.42-.14h-.12a1.56,1.56,0,0,1,1.23,0l.78.43a8.77,8.77,0,0,1,5.35,1.81l.79.11a2.17,2.17,0,0,1,0-1,13.53,13.53,0,0,0-.06-5.31,10,10,0,0,0-4.49-7.11,5.35,5.35,0,0,1-1.11.74c-1.6,2.82-4.32,4.47-8.09,4.89-2.54.29-7.52-2.49-8.05-2.8l-.8-.46a13.33,13.33,0,0,1,3.25,4.31,16.27,16.27,0,0,1,1.52,8l1.59,1.51.67-.13-.73-2.34,1.39,1.32,0-.12.92.92h.12l.65.72Zm-63.81,7.26a.38.38,0,0,0-.19,0c-.05,0-.18.41,0,1.36,0,0,.54.61,4,.9C117.51,82.37,115.93,81.46,115.06,81.46Zm21.09-4.24a7.79,7.79,0,0,1-1.46,4.92A14.35,14.35,0,0,0,137,80.47l.15-.13.19-.07a6,6,0,0,1,3.89.12,13.3,13.3,0,0,0,5.27.43,15.08,15.08,0,0,1-3.27-.19,10.73,10.73,0,0,1-1.27-.29,20.14,20.14,0,0,1-5.63-3Zm50.92-6.13a6.16,6.16,0,0,0,3.14,1.41A6.86,6.86,0,0,0,187.07,71.09ZM167.33,58.34l3.49.14s1.7.07,4-.09c4.55-.32,7.53-1.31,8.18-2.72,1.32-2.87.92-7-1-10.2a10,10,0,0,0-9.11-5.15h-.18a1.79,1.79,0,0,1-2-1.93,10.47,10.47,0,0,0-1.38-4.53,5.89,5.89,0,0,0-5.68-3.08v.6a23.82,23.82,0,0,1,0,2.53c0,.46-.08.91-.13,1.37a23.62,23.62,0,0,0-.14,4.66A7.41,7.41,0,0,0,165,44.4c1.93,2,4.37,2.62,7.52,1.83.77-.19,1.53-.46,2.34-.74l1.17-.4,3.56-1.17-2.51,2.79a8.84,8.84,0,0,1-2.67,2,10.39,10.39,0,0,1-5,2,15.9,15.9,0,0,1-1.67.1c-5.58,0-9.19-3.33-9.66-8.89a27.6,27.6,0,0,1,.4-7.34,9.83,9.83,0,0,0-12.64-10.73,1.14,1.14,0,0,0-.1.89,9,9,0,0,1-2.38,8c-.63.71-1.28,1.41-1.93,2.11-.34.35-.68.71-1,1.07-.57.62-1.14,1.25-1.68,1.9-2,2.42-2.64,4.51-2,6.77a3,3,0,0,0,3.2,2.37,8.62,8.62,0,0,0,2.84-.5l.38-.16a23.63,23.63,0,0,1,5.31-1.55c4.54-.71,8.13.88,10.05,4.48A17.83,17.83,0,0,1,160,53.26a4.33,4.33,0,0,0,3.57,3.58c.24.06.45.13.67.2l.27.09A14.43,14.43,0,0,1,167.33,58.34ZM82.47,142.75a2.12,2.12,0,0,1-1.68-.83,1.07,1.07,0,0,0-.14-.16,16.4,16.4,0,0,1-4.35-8.21c-.65-2.55-1-2.74-3.11-2.74h-1l-1.1,0a8.18,8.18,0,0,1-3.1-.5A4.2,4.2,0,0,1,65.91,129H63.82l.71-.7-.09,0,.3-.26-.95-.87,5.15-.38-.74.72.28.27.23.08.23.07.4.1a6.19,6.19,0,0,0,2.74-.06,6.75,6.75,0,0,0,.68-.21,7,7,0,0,0,.75-.31,11.54,11.54,0,0,0,2.94-2.11,13.8,13.8,0,0,0,4.15-13.41,5.82,5.82,0,0,0-.5-1.4c-.83-1.65-1.46-2-2.21-2a5.43,5.43,0,0,0-1.76.39,20.59,20.59,0,0,1-8,1.64,10,10,0,0,1-8.44-4.82c-.07-.11-.15-.21-.23-.32l-.83-1.11.93-.57a1.58,1.58,0,0,1,.83-.25,1.64,1.64,0,0,1,1.23.64l.08.08a9.54,9.54,0,0,0,6.69,2.72A12.84,12.84,0,0,0,77,103.23c3.85-3.8,4.81-8.43,3-14.58-.07-.24-.15-.47-.24-.7l-.4-1.15.83-.38a1.34,1.34,0,0,1,1.9.76,15.81,15.81,0,0,1,.51,16,3.18,3.18,0,0,0,.2,3.72c2.75,4,3.08,8.68,1,14.25a17.16,17.16,0,0,1-2.32,4.6c-2,2.56-2.42,5.51-1.39,9.29a14,14,0,0,0,2,4.53l.47.6.24.28.12.14.12.16a1.83,1.83,0,0,1,.18.3,1.13,1.13,0,0,1,.09.87l-.11.82-.83,0Zm-7.61-13.81a3.38,3.38,0,0,1,2.74,2.2A10.77,10.77,0,0,1,80,124.51,12.06,12.06,0,0,0,81.38,122a17.17,17.17,0,0,1-3.54,4.73A14.46,14.46,0,0,1,74.86,128.94Zm3-22.46c2.17,0,3.28,1.65,4,3.09a7.84,7.84,0,0,1,.67,1.89,16.89,16.89,0,0,1,0,7.22c1.18-4.17.73-7.6-1.37-10.67a5.13,5.13,0,0,1-.33-5.76A15.43,15.43,0,0,0,82.11,99a14.81,14.81,0,0,1-3.67,5.65A15.19,15.19,0,0,1,75,107.15l.45-.16A7.1,7.1,0,0,1,77.89,106.48Z" transform="translate(-8.72 -10.38)" style="fill:#162a42"/><path d="M59.22,70a8.71,8.71,0,0,0,1.71,2c.2-.32,0-.55-.13-.8-3-4.19-2.8-8.58-.61-13,2.93-5.88,8-8.51,14.49-8.78a7.43,7.43,0,0,1,1.63.14A2,2,0,0,1,78.1,52c-.43,3.67,0,7.14,2.59,10.06a20.47,20.47,0,0,0,1.74,1.62h0l.16-.17c-.64-.9-1.35-1.77-1.92-2.71a9.32,9.32,0,0,1-.92-2.24c0-.07,0-.15-.05-.22-1.15-7,.79-12.28,7.22-15.23a10,10,0,0,1,4.44-1.3,2.39,2.39,0,0,1,1.72.58,13.78,13.78,0,0,0,3.55,11.55h0A13.65,13.65,0,0,1,95.77,62a21.74,21.74,0,0,1-1.9,3.73A13.91,13.91,0,0,1,84,72.14c-4.31.68-8.49,0-11.55-3.5a10.22,10.22,0,0,1-.87-1.15h0A20.49,20.49,0,0,1,70,62.71h0a12,12,0,0,1,.11-2.22v0q0-.35.12-.69c0-.2.11-.4.14-.6a.6.6,0,0,0-.06-.22,7,7,0,0,0-.68,1.22c-1.82,4.24,1,9.68,6.58,12.49l.29.14c-6.13,2.71-9.31,7-10.52,12.32a28.36,28.36,0,0,0-.51,8A12.92,12.92,0,0,0,60.2,91a12.89,12.89,0,0,0-6.75.32,2,2,0,0,1-2-.38c-5.05-3.6-6.59-8.5-5.55-14.35a9.39,9.39,0,0,1,1-3.36c2.32,6.36,6.62,9.55,13.84,8.65l-3-.61c-5.5-1.1-8.2-4.79-9.23-9.86-1.32-6.56,1.58-12,7.72-14.94a6.46,6.46,0,0,1,1.06-.41c.52-.14,1.1-.35,1.53.14s.05,1-.13,1.5C57.36,61.84,56.86,65.94,59.22,70Z" transform="translate(-8.72 -10.38)" style="fill:#f80"/><path d="M66.63,95.29,64.88,94A11.88,11.88,0,0,0,60,92a12,12,0,0,0-6.23.3,3.17,3.17,0,0,1-2.85-.52C45.8,88.11,43.79,83,45,76.42l0-.18a10.07,10.07,0,0,1,1.11-3.5l1.07-1.86.73,2,.21.55c-.17-.58-.33-1.19-.46-1.83-1.39-6.94,1.7-12.93,8.27-16a7.13,7.13,0,0,1,1.22-.47l.11,0a3.64,3.64,0,0,1,1-.18,1.87,1.87,0,0,1,1.44.64,1.72,1.72,0,0,1,.4.73c3-5,7.92-7.61,14.55-7.88h.24a8.33,8.33,0,0,1,1.61.17A2.91,2.91,0,0,1,79,50.43c1-3.67,3.55-6.39,7.56-8.23l.23-.11a10.52,10.52,0,0,1,4.48-1.28h.18a3.4,3.4,0,0,1,2.4.87l.36.36-.08.5a12.88,12.88,0,0,0,3.31,10.74l.25.28v.28a14.59,14.59,0,0,1-.94,8.54,21.71,21.71,0,0,1-2,3.91,14.91,14.91,0,0,1-10.56,6.84,17.1,17.1,0,0,1-5.94,0l-1.28.61C71.45,76.13,68.2,79.94,67,85.34a27.3,27.3,0,0,0-.49,7.75ZM57.42,89.7a13.77,13.77,0,0,1,3,.33,17.74,17.74,0,0,1,4,1.29A26.58,26.58,0,0,1,65,84.9a19.43,19.43,0,0,1,.77-2.62l-4.86.6c-6.45.81-11.08-1.51-13.87-6.9,0,.2-.08.4-.11.61l0,.18c-1,5.79.65,10.16,5.14,13.36.66.48.74.36,1.07.25A14.07,14.07,0,0,1,57.42,89.7Zm.63-32.77-.26.07-.12,0a5.35,5.35,0,0,0-.89.35c-5.78,2.73-8.39,7.77-7.17,13.83,1,5.18,3.81,8.16,8.44,9.08l1.63.33,6.26,1.28a17.58,17.58,0,0,1,8.4-9.16c-5.11-3.18-7.51-8.55-5.61-13a8,8,0,0,1,.78-1.39l1.18-1.72.6,2a1.18,1.18,0,0,1,.09.65c0,.16-.06.29-.1.43a2.25,2.25,0,0,0,0,.22c0,.21-.08.42-.11.63l0,.16A10.14,10.14,0,0,0,71,62.57,19.42,19.42,0,0,0,72.43,67a9.08,9.08,0,0,0,.76,1c2.47,2.87,5.93,3.9,10.64,3.17a12.85,12.85,0,0,0,9.2-6,19.65,19.65,0,0,0,1.81-3.55,12.65,12.65,0,0,0,.87-7.24A14.77,14.77,0,0,1,92,42.9a3,3,0,0,0-.68-.09h-.12a8.75,8.75,0,0,0-3.64,1.1l-.23.11c-5.69,2.61-7.81,7.11-6.65,14.15l0,.16a9.18,9.18,0,0,0,.83,2c.33.54.75,1.1,1.19,1.69.22.31.45.61.66.91l.49.7-.72.71-.67.76-.75-.68c-.18-.17-.37-.33-.55-.48a14.38,14.38,0,0,1-1.27-1.21c-2.46-2.82-3.36-6.26-2.84-10.84.11-.93-.1-1.22-1-1.37a6.51,6.51,0,0,0-1.26-.14h-.16c-6.55.28-11,3-13.64,8.24-2.2,4.42-2,8.33.54,11.95a1.63,1.63,0,0,1,.15,1.91l-.64,1-.88-.8a9.44,9.44,0,0,1-1.89-2.22c-2.82-4.79-1.75-9.51-.49-13.08A2.9,2.9,0,0,1,58,57Z" transform="translate(-8.72 -10.38)" style="fill:#162a42"/><path d="M66.52,118.6A5.63,5.63,0,0,0,64,116.5a5.56,5.56,0,0,0-2.14-1.31,16.19,16.19,0,0,0-4.34-.79,10,10,0,0,1-8.75-5.68c-1.67-3.07-2.51-6.37-1.2-9.82a8.38,8.38,0,0,1,4.27-4.76A8.61,8.61,0,0,0,49.13,98c-1.31,3.45-.46,6.75,1.2,9.82a10,10,0,0,0,8.75,5.68,16.19,16.19,0,0,1,4.35.79,5.88,5.88,0,0,1,3.92,5.36C66.89,119.41,66.76,119,66.52,118.6Z" transform="translate(-8.72 -10.38)" style="fill:#f80"/><path d="M68.38,121.12,67,120.53a2.36,2.36,0,0,1-1.14-1.15,2.53,2.53,0,0,0-.13-.22,4.66,4.66,0,0,0-2-1.73l-.18-.08-.14-.13a4.43,4.43,0,0,0-1.76-1.08,14.66,14.66,0,0,0-4.07-.74,10.93,10.93,0,0,1-9.58-6.2c-2.1-3.87-2.51-7.35-1.26-10.65a9.36,9.36,0,0,1,4.78-5.31l8.12-3.85-7.07,5.54a7.62,7.62,0,0,0-2.42,3.37c-1,2.77-.69,5.62,1.14,9a9,9,0,0,0,7.92,5.15,17.41,17.41,0,0,1,4.61.84,6.88,6.88,0,0,1,4.61,6.29Z" transform="translate(-8.72 -10.38)" style="fill:#162a42"/></g><path d="M236,117.53c-4.89-17.92-18-21.47-25-16.73-4,3.25-7.38,3-8.3,6.63,0-6.47,1-14.47-3.27-24.71-8-22.58-38.84-23.88-59.6-15.91-.49-2.15.3-4.22,2.18-6.23-3.79,1.23-18.67,4.77-19.51,10.26.08-2.12-4.63-5.12-16.31-10.21,1.7,2.63,4.3,5.61,3.1,7.84C84.71,54.27,55.38,65.39,46,87.39H43.58c-3.26,8.67-3.26,13.1-3.26,19.84-1.31-3-5.92-6.34-9.32-8.14C24.17,96.39,13.1,102,9.21,120,6,145.62,19,172,31,179.25c5.51,3.41,9.76,2.88,15.06-1.31C46.87,205.27,69,237,88.5,243.39l-1.91-6c2.94,4.35,9.91,7.63,15.91,11-1.49-1.68-2.85-3.13-3.83-7.93,1.74,2.75,16.65,8.88,23-1,4.6,6.05,21.47,4.88,24,.33-.59,3.95-1.17,5.17-5.29,8.6,10.75-2.3,17.45-8.72,18.71-11.3a11.75,11.75,0,0,1-3.46,7.18c36-14.88,39.84-54.16,41.19-65,3.28,3,7.52,4.27,14.18,1.91C226,176,241.26,136.92,236,117.53Z" transform="translate(-8.72 -10.38)" style="fill:#162a42"/><path d="M156.14,144.76a82.44,82.44,0,0,0-15.87,12.86c6-6.3,10.14-12.68,11.54-19.17-3.8-9.7-11-15.69-22.25-17.31-3.37.75-6,2-7.21,4.21a22.18,22.18,0,0,0-9.88-4.21c-9.14,3.57-19,6.59-19,17.31-.67,5.39,5.13,11.9,11.32,18.47-6-4.74-11.76-8.89-16.89-11-13.32,17.16-17.9,28.32-17.9,28.32s18.37,6.56,50.37,7S173,173,173,173A82.82,82.82,0,0,0,156.14,144.76Zm-42.23-1c-4.6,1.48-6.9-3.79-4.9-9-5.57,1.92-5.92,7.42,1.09,16.61-4.83-2.5-9.27-6.43-10.3-13.92-.52-6,4.79-9.7,11-8.65C119.36,129.33,121.91,139.33,113.91,143.71Zm22-9c2,5.22-.3,10.49-4.9,9-8-4.38-5.45-14.38,3.14-15,6.18-1.05,11.49,2.69,11,8.65-1,7.49-5.47,11.42-10.3,13.92C141.78,142.12,141.43,136.62,135.86,134.7Z" transform="translate(-8.72 -10.38)" style="fill:#00e959"/><path d="M68.51,178c10.92,4.88,23,15.24,52.21,15.74s38.82-6.61,53.37-17c8.69,19.87-3.3,48.45-13,54.33,0,0,3-10.6,2.16-13.45-1.5,6.13-5.05,12-12,17.54,2.31-4.78,3.41-8.39,2.79-10.29-2,7.73-10,11.52-15.76,11.35-5.77-.44-13.41-.44-16-9.35,0-6.81,1.66-7.74,5.29-9.82a8.48,8.48,0,0,1,6.48.12,12.3,12.3,0,0,0-4.42-4.24c3.83-.55,7.76.75,11.74,2.37a21.44,21.44,0,0,0-5.79-5.27l10.11,3.51c-3.26-7.95-11.73-11.85-23.79-12.3-9.12-.43-17.36,4.14-24.82,12.42,4.27-1.75,8.36-3.24,12.13-3.18a11.3,11.3,0,0,0-4.92,4.58,25.29,25.29,0,0,1,10.4-2.48,6.09,6.09,0,0,0-3.4,3.48c8.24.16,9.93,2.54,9.39,10.69-.5,9.89-10.47,11.49-13.82,11.45-7,.44-12.76-3.15-16.58-13.68a70.68,70.68,0,0,0,3,11.81c-6-4.55-9.61-11.36-12.15-19.17-.72,3.12-.7,7,.41,11.92C70.05,218.2,60.74,196.11,68.51,178Z" transform="translate(-8.72 -10.38)" style="fill:#00e959"/><path d="M95.12,70.85c10.78.62,18.11,6.83,17.82,9.24,1.23-1.29,1.48-2.94.66-5,4,3,5.31,7.27,3.19,13.23,0,3-22.54-7.45-38.85-1.1s-17.21,9.35-17.21,9.35l3.72-.65c-1.94,2-3.13,5.33-4.11,9.07,2.2-2.17,4-3.33,5.57-3.5-5.48,9.92-6,19.74-2.06,29.46-2.84-.37-5.59-2.86-8.24-8,1.29,14.44,12.29,15.76,32.14,5.15A83.05,83.05,0,0,1,65,167.45a54.71,54.71,0,0,0,5.36-11.62,32.9,32.9,0,0,0-4.6,1.56c2-7.69,4.85-14,8.1-16.76,0,0-34,2.9-25.41-42.95C54,67.94,85.55,70.29,95.12,70.85Z" transform="translate(-8.72 -10.38)" style="fill:#f7f7f7"/><path d="M149,70.85c-10.78.62-18.1,6.83-17.82,9.24-1.22-1.29-1.47-2.94-.66-5-4,3-5.31,7.27-3.19,13.23,0,3,22.54-7.45,38.85-1.1s17.21,9.35,17.21,9.35l-3.72-.65c1.94,2,3.13,5.33,4.11,9.07-2.19-2.17-4.05-3.33-5.57-3.5,5.49,9.92,6,19.74,2.06,29.46,2.84-.37,5.59-2.86,8.24-8-1.29,14.44-12.29,15.76-32.13,5.15a83,83,0,0,0,22.72,39.29,54.18,54.18,0,0,1-5.35-11.62,33.8,33.8,0,0,1,4.6,1.56c-2.05-7.69-4.86-14-8.11-16.76,0,0,34,2.9,25.41-42.95C190.06,67.94,158.53,70.29,149,70.85Z" transform="translate(-8.72 -10.38)" style="fill:#f7f7f7"/><path d="M46,138.91c1.81-15.3-10-30.55-15.79-30.55S16,115.84,16.06,129.87c.07,16.71,10.17,40.07,21,42.1,7.28,0,9.28-3.46,10-11.85-.64-6.33-2.88-13.41-11.53-12.48S25,145.61,24.44,130c0-8.06,2.07-12.37,5.49-14.35C34.74,115.74,40.16,124.39,46,138.91Z" transform="translate(-8.72 -10.38)" style="fill:#f7f7f7"/><path d="M198.43,138.91c-1.81-15.3,10-30.55,15.79-30.55s14.2,7.48,14.15,21.51c-.06,16.71-10.16,40.07-21,42.1-7.28,0-9.28-3.46-10-11.85.64-6.33,2.88-13.41,11.54-12.48s10.56-2,11.12-17.61c0-8.06-2.07-12.37-5.49-14.35C209.69,115.74,204.27,124.39,198.43,138.91Z" transform="translate(-8.72 -10.38)" style="fill:#f7f7f7"/><path d="M86.76,104.07c6.11-7.38,21-3,15.44,11-3.25,8.25-10.06,8.61-15.11,4.55C83.16,113.9,82.08,109.72,86.76,104.07Z" transform="translate(-8.72 -10.38)" style="fill:#f7f7f7"/><path d="M157.32,105.07c-6.11-7.38-21-3-15.44,11,3.25,8.25,10.06,8.61,15.11,4.55C160.92,114.9,162,110.72,157.32,105.07Z" transform="translate(-8.72 -10.38)" style="fill:#f7f7f7"/></svg>